<?xml version="1.0" encoding="utf-8"?>
<!-- Generator: Adobe Illustrator 22.1.0, SVG Export Plug-In . SVG Version: 6.00 Build 0)  -->
<svg version="1.1" id="Layer_1" xmlns="http://www.w3.org/2000/svg" xmlns:xlink="http://www.w3.org/1999/xlink" x="0px" y="0px"
	 viewBox="0 0 42.8 24" style="enable-background:new 0 0 42.8 24;" xml:space="preserve">
<style type="text/css">
	.st0{fill:none;}
	.st1{fill:#FFC786;stroke:#FFC786;stroke-miterlimit:10;}
	.st2{fill:#D52227;}
	.st3{fill:#1CAAA6;}
	.st4{fill:#231F20;}
</style>
<path class="st0" d="M0,0h24v24H0V0z"/>
<path class="st0" d="M0,0h24v24H0V0z"/>
<g>
	<path class="st1" d="M10.6,4.3c2.6-1.2,5.9-1.8,9.2-1.8c3.3,0,6.3,0.6,9,1.8c-5,0.2-9,4.2-9,9.3C19.8,8.4,15.7,4.3,10.6,4.3z"/>
	<path class="st2" d="M10.3,12c-0.8,0-1.5,0.7-1.5,1.5c0,0.8,0.7,1.5,1.5,1.5s1.5-0.7,1.5-1.5C11.8,12.7,11.1,12,10.3,12z"/>
	<path class="st3" d="M28.9,12c-0.8,0-1.5,0.7-1.5,1.5s0.7,1.5,1.5,1.5c0.8,0,1.5-0.7,1.5-1.5S29.7,12,28.9,12z"/>
	<g>
		<path d="M10.5,9C8,9,6,11,6,13.5C6,16,8,18,10.5,18c2.5,0,4.5-2,4.5-4.5C15,11,13,9,10.5,9z M10.5,16.6c-1.7,0-3.1-1.4-3.1-3.1
			c0-1.7,1.4-3.1,3.1-3.1c1.7,0,3.1,1.4,3.1,3.1C13.6,15.2,12.2,16.6,10.5,16.6z M38.5,4.4h-6.2c-3.2-2.1-7.5-3.5-12.4-3.5
			c-4.9,0-9.6,1.3-12.7,3.5H1.3c1,1.1,1.7,2.6,1.9,3.7C2,9.6,1.4,11.5,1.4,13.5c0,5.1,4.1,9.3,9.3,9.3c2.9,0,5.5-1.3,7.2-3.4
			c0.7,0.8,1.8,2.4,2.1,2.9c0,0,1.3-2,2.1-2.9c1.7,2.1,4.3,3.4,7.2,3.4c5.1,0,9.3-4.1,9.3-9.3c0-2-0.7-3.9-1.8-5.4
			C36.8,7,37.5,5.5,38.5,4.4z M10.6,21c-4.1,0-7.5-3.3-7.5-7.5c0-4.1,3.3-7.5,7.5-7.5s7.5,3.3,7.5,7.5C18.1,17.6,14.7,21,10.6,21z
			 M10.6,4.3c2.6-1.2,5.9-1.8,9.2-1.8c3.3,0,6.3,0.6,9,1.8c-5,0.2-9,4.2-9,9.3C19.9,8.4,15.7,4.3,10.6,4.3z M29.1,21
			c-4.1,0-7.5-3.3-7.5-7.5c0-4.1,3.3-7.5,7.5-7.5c4.1,0,7.5,3.3,7.5,7.5C36.6,17.6,33.3,21,29.1,21z M29.1,9c-2.5,0-4.5,2-4.5,4.5
			c0,2.5,2,4.5,4.5,4.5c2.5,0,4.5-2,4.5-4.5C33.6,11,31.6,9,29.1,9z M29.1,16.6c-1.7,0-3.1-1.4-3.1-3.1c0-1.7,1.4-3.1,3.1-3.1
			s3.1,1.4,3.1,3.1C32.3,15.2,30.9,16.6,29.1,16.6z"/>
		<g>
			<g>
				<path class="st4" d="M40.6,5.9h-0.3V4.6h0.4c0.2,0,0.5,0,0.5,0.4c0,0.2-0.1,0.3-0.3,0.3l0.3,0.5h-0.3l-0.3-0.5h-0.1V5.9z
					 M40.6,5.2c0.2,0,0.2,0,0.2,0c0.1,0,0.1-0.1,0.1-0.2c0-0.1,0-0.1-0.1-0.1c0,0-0.1,0-0.2,0V5.2z"/>
			</g>
			<path class="st4" d="M40.8,4.2c-0.6,0-1.1,0.5-1.1,1.1c0,0.6,0.5,1.1,1.1,1.1c0.6,0,1.1-0.5,1.1-1.1C41.9,4.7,41.4,4.2,40.8,4.2z
				 M40.8,6.2c-0.5,0-0.9-0.4-0.9-0.9c0-0.5,0.4-0.9,0.9-0.9c0.5,0,0.9,0.4,0.9,0.9C41.7,5.8,41.3,6.2,40.8,6.2z"/>
		</g>
	</g>
</g>
</svg>
