<?xml version="1.0" encoding="utf-8"?>
<!-- Generator: Adobe Illustrator 22.1.0, SVG Export Plug-In . SVG Version: 6.00 Build 0)  -->
<svg version="1.1" id="Layer_1" xmlns="http://www.w3.org/2000/svg" xmlns:xlink="http://www.w3.org/1999/xlink" x="0px" y="0px"
	 viewBox="0 0 24 24" style="enable-background:new 0 0 24 24;" xml:space="preserve">
<style type="text/css">
	.st0{opacity:0.5;}
</style>
<g>
	<path d="M22.5,5.3C21.9,6.2,21,8.1,21,11.2c0,0.5,0.3,0.9,0.7,1.1c0.2,0.1,0.3,0.2,0.3,0.4l-0.6,4.6c0,0.4,0.1,1.1,0.9,1.1
		c0.8,0,1-0.6,1-1V5.5C23.2,4.9,22.8,4.8,22.5,5.3L22.5,5.3z" fill="#727272"/>
	<path d="M4,5C3.8,5,3.7,5.1,3.7,5.3v3.2c0,0.2-0.2,0.4-0.4,0.4C3.1,8.9,3,8.7,3,8.5V5.3C3,5.1,2.8,5,2.6,5C2.4,5,2.3,5.1,2.3,5.3
		v3.2c0,0.2-0.2,0.4-0.4,0.4c-0.2,0-0.4-0.2-0.4-0.4V5.3C1.6,5.1,1.4,5,1.2,5C1,5,0.8,5.1,0.8,5.3c0,1,0,3.9,0,3.9
		c0,0.5,0.3,1.1,0.9,1.3C2,10.6,2.1,10.8,2.1,11l-0.5,6.4c0,0.4,0.2,1,1,1c0.8,0,1-0.6,1-1L3.2,11c0-0.2,0.1-0.4,0.3-0.4
		c0.6-0.2,0.9-0.8,0.9-1.3V5.3C4.4,5.1,4.2,5,4,5L4,5z" fill="#727272"/>
	<circle cx="12.4" cy="12" r="7" fill="#727272"/>
</g>
</svg>
