<?xml version="1.0" encoding="utf-8"?>
<!-- Generator: Adobe Illustrator 22.1.0, SVG Export Plug-In . SVG Version: 6.00 Build 0)  -->
<svg version="1.1" id="Layer_1" xmlns="http://www.w3.org/2000/svg" xmlns:xlink="http://www.w3.org/1999/xlink" x="0px" y="0px"
	 viewBox="0 0 24 24" style="enable-background:new 0 0 24 24;" xml:space="preserve">
<path d="M20,6h-3V4c0-1.1-0.9-2-2-2H9C7.9,2,7,2.9,7,4v2H4C2.9,6,2,6.9,2,8v11c0,1.1,0.9,2,2,2h16c1.1,0,2-0.9,2-2V8
	C22,6.9,21.1,6,20,6z M6.5,12.3l-1.4-1l-1.4,1V7.6h2.9V12.3z M15,6H9V4h6V6z" fill="#727272"/>
</svg>
