<?xml version="1.0" encoding="utf-8"?>
<!-- Generator: Adobe Illustrator 22.1.0, SVG Export Plug-In . SVG Version: 6.00 Build 0)  -->
<svg version="1.1" id="Layer_1" xmlns="http://www.w3.org/2000/svg" xmlns:xlink="http://www.w3.org/1999/xlink" x="0px" y="0px"
	 viewBox="0 0 30 30" style="enable-background:new 0 0 30 30;" xml:space="preserve">
<rect x="9.5" y="16.2" width="20.5" height="5" fill="#FFFFFF"/>
<rect x="2.4" y="16.2" width="4.9" height="5" fill="#FFFFFF"/>
<rect x="9.5" y="25" width="20.5" height="5" fill="#FFFFFF"/>
<rect x="2.4" y="25" width="4.9" height="5" fill="#FFFFFF"/>
<g>
	<path d="M15.3,7.4c0,1.9-0.7,3.7-1.9,5H30v-5H15.3z" fill="#FFFFFF"/>
</g>
<path d="M7.3,0C3.3,0,0,3.3,0,7.3s3.3,7.3,7.3,7.3s7.3-3.3,7.3-7.3S11.3,0,7.3,0z M12,8.1h-4v4H6.5v-4h-4V6.5h4v-4h1.6v4h4V8.1z" fill="#FFFFFF"/>
</svg>
