<?xml version="1.0" encoding="utf-8"?>
<!-- Generator: Adobe Illustrator 22.1.0, SVG Export Plug-In . SVG Version: 6.00 Build 0)  -->
<svg version="1.1" id="Layer_1" xmlns="http://www.w3.org/2000/svg" xmlns:xlink="http://www.w3.org/1999/xlink" x="0px" y="0px"
	 viewBox="0 0 70 20" style="enable-background:new 0 0 70 20;" xml:space="preserve">
<style type="text/css">
	.st0{fill:#FFFFFF;}
	.st1{fill:#00799E;}
</style>
<rect class="st0" width="70" height="20"/>
<g>
	<g>
		<path class="st1" d="M17,14.4c0,0.7,0.1,1.3,0.3,1.7c-0.3,0.2-0.6,0.2-0.9,0.2s-0.6-0.1-0.8-0.2c-0.2-0.2-0.3-0.3-0.4-0.6
			c-0.2,0.2-0.6,0.5-0.9,0.6c-0.4,0.2-0.8,0.2-1.2,0.2c-0.6,0-1.2-0.2-1.6-0.6c-0.4-0.4-0.6-0.9-0.6-1.6c0-1.5,1.2-2.3,3.5-2.4
			c0.2,0,0.4,0,0.6,0v-0.2c0-0.3-0.1-0.6-0.3-0.8c-0.2-0.2-0.6-0.2-0.9-0.2c-0.3,0-0.6,0.1-0.9,0.2c-0.3,0.1-0.7,0.2-1.2,0.6
			c-0.2-0.2-0.2-0.3-0.3-0.6c-0.1-0.2-0.2-0.3-0.2-0.5c0-0.2,0.2-0.4,0.4-0.6c0.4-0.2,0.8-0.3,1.2-0.4c0.4-0.1,0.9-0.2,1.3-0.2
			c1,0,1.7,0.2,2.1,0.6c0.5,0.4,0.6,1.1,0.6,2.1V14.4z M15.2,12.8c-0.1,0-0.2,0-0.2,0s-0.2,0-0.2,0c-0.7,0.1-1.2,0.2-1.5,0.4
			s-0.5,0.5-0.5,0.9c0,0.3,0.1,0.6,0.2,0.7c0.2,0.2,0.4,0.2,0.7,0.2s0.6-0.1,0.9-0.2s0.4-0.3,0.4-0.5v-1.5H15.2z"/>
		<path class="st1" d="M20.5,7c0,0.3-0.1,0.6-0.3,0.7C20,7.9,19.8,8,19.5,8C19.2,8,19,8,18.7,7.7c-0.2-0.2-0.3-0.5-0.3-0.7
			c0-0.3,0.1-0.6,0.3-0.7C18.9,6.1,19.2,6,19.5,6s0.6,0.1,0.7,0.3C20.5,6.5,20.5,6.7,20.5,7z M20.5,16.2c-0.1,0-0.3,0.1-0.7,0.1
			c-0.5,0-0.8-0.1-0.9-0.3c-0.2-0.2-0.3-0.5-0.3-0.9V9.3c0,0,0.1,0,0.2,0c0.2,0,0.3,0,0.4,0c0.9,0,1.3,0.4,1.3,1.1L20.5,16.2
			L20.5,16.2z"/>
		<path class="st1" d="M24,10c0.2-0.2,0.4-0.5,0.7-0.6s0.6-0.2,0.9-0.2s0.6,0.1,0.8,0.2c0.2,0.2,0.3,0.3,0.3,0.5
			c0,0.1,0,0.2-0.1,0.4s-0.1,0.3-0.2,0.6c-0.1,0.2-0.2,0.3-0.2,0.5c-0.2-0.2-0.4-0.2-0.6-0.3c-0.2-0.1-0.3-0.1-0.6-0.1
			c-0.3,0-0.6,0.1-0.7,0.2c-0.2,0.2-0.3,0.4-0.3,0.6v4.4h-2V9.3h0.2c0.2,0,0.3,0,0.5,0c0.3,0,0.6,0.1,0.8,0.2
			C23.8,9.5,23.9,9.7,24,10z"/>
		<path class="st1" d="M28,15.1c-0.1-0.3-0.2-0.7-0.2-1.3V7.2H28c0.2,0,0.3,0,0.5,0c0.9,0,1.3,0.4,1.3,1.2v0.9h2.1v1.5h-2.1v3.1
			c0,0.7,0.2,1,0.8,1c0.2,0,0.4-0.1,0.6-0.2c0.2-0.1,0.4-0.2,0.6-0.4c0.2,0.2,0.3,0.5,0.3,0.6c0.1,0.2,0.1,0.2,0.1,0.4
			s-0.1,0.4-0.3,0.6c-0.2,0.2-0.5,0.3-0.8,0.4c-0.3,0.1-0.6,0.2-1,0.2C29,16.3,28.3,15.9,28,15.1z"/>
		<path class="st1" d="M39.5,12.7c0,0.8-0.2,1.4-0.4,2c-0.2,0.6-0.6,0.9-1.2,1.3c-0.5,0.3-1.1,0.4-1.8,0.4c-1.1,0-1.9-0.3-2.5-0.9
			c-0.6-0.6-0.9-1.5-0.9-2.7c0-0.7,0.2-1.3,0.5-1.9c0.3-0.6,0.7-0.9,1.2-1.3c0.6-0.3,1.1-0.4,1.8-0.4c1.1,0,1.9,0.3,2.4,0.9
			C39.2,10.6,39.5,11.5,39.5,12.7z M37.5,12.7c0-1.4-0.5-2.1-1.4-2.1c-0.5,0-0.9,0.2-1.1,0.6c-0.2,0.4-0.4,0.9-0.4,1.6
			c0,0.7,0.2,1.3,0.4,1.6c0.2,0.4,0.6,0.6,1,0.6C37,14.8,37.5,14.1,37.5,12.7z"/>
		<path class="st1" d="M47,16.1h-1.3c-0.2,0-0.3-0.1-0.4-0.2c-0.1-0.1-0.2-0.3-0.2-0.6c-0.5,0.6-1.2,0.9-2.1,0.9
			c-0.6,0-1.1-0.2-1.4-0.4c-0.4-0.2-0.6-0.6-0.7-1.1c-0.1-0.3-0.1-0.9-0.1-1.5V9.3c0,0,0.1,0,0.2,0c0.2,0,0.3,0,0.4,0
			c0.9,0,1.3,0.4,1.3,1.1v2.8c0,0.5,0,0.8,0.1,0.9c0.1,0.2,0.2,0.3,0.3,0.4c0.2,0.1,0.3,0.2,0.6,0.2c0.4,0,0.7-0.1,0.9-0.2
			c0.2-0.2,0.4-0.3,0.4-0.6V9.3c0,0,0.1,0,0.2,0c0.2,0,0.3,0,0.4,0c0.4,0,0.7,0.1,0.9,0.3c0.2,0.2,0.3,0.5,0.3,0.9L47,16.1L47,16.1z
			"/>
		<path class="st1" d="M50.4,10c0.2-0.2,0.4-0.5,0.7-0.6s0.6-0.2,0.9-0.2c0.3,0,0.6,0.1,0.8,0.2c0.2,0.1,0.3,0.2,0.3,0.5
			c0,0.1,0,0.2-0.1,0.4s-0.1,0.3-0.2,0.6c-0.1,0.2-0.2,0.3-0.2,0.5c-0.2-0.2-0.4-0.2-0.6-0.3c-0.2-0.1-0.3-0.1-0.5-0.1
			c-0.3,0-0.6,0.1-0.7,0.2c-0.2,0.2-0.3,0.4-0.3,0.6v4.4h-2V9.3h0.2c0.2,0,0.3,0,0.5,0c0.3,0,0.6,0.1,0.8,0.2
			C50.3,9.5,50.4,9.7,50.4,10z"/>
		<path class="st1" d="M58.9,10.1c0,0.2-0.2,0.6-0.4,1.1c-0.2-0.2-0.6-0.4-0.9-0.5c-0.4-0.2-0.7-0.2-1-0.2c-0.6,0-0.9,0.2-0.9,0.6
			c0,0.3,0.3,0.6,1,0.7c0.6,0.1,1,0.2,1.3,0.5c0.3,0.2,0.6,0.4,0.7,0.7c0.2,0.3,0.2,0.6,0.2,1c0,0.7-0.2,1.3-0.8,1.7
			c-0.6,0.4-1.3,0.6-2.1,0.6c-0.7,0-1.3-0.1-1.8-0.3c-0.5-0.2-0.7-0.4-0.7-0.7c0-0.2,0.1-0.3,0.2-0.5c0.1-0.2,0.2-0.4,0.3-0.6
			c0.2,0.2,0.6,0.4,0.9,0.5c0.3,0.2,0.7,0.2,1,0.2c0.7,0,1.1-0.2,1.1-0.7c0-0.2-0.1-0.4-0.2-0.6c-0.2-0.2-0.6-0.2-1-0.3
			c-0.7-0.2-1.3-0.4-1.7-0.7c-0.3-0.3-0.6-0.8-0.6-1.3c0-0.6,0.2-1.2,0.8-1.5c0.6-0.4,1.2-0.6,2-0.6c0.7,0,1.3,0.1,1.8,0.3
			C58.6,9.6,58.9,9.8,58.9,10.1z"/>
	</g>
	<path class="st1" d="M27.8,5.6c0,0,0.6-1,2.8-0.6c1.7,0.3,2.2,1.3,2.2,1.3s1.3-1.3,4.1-2.1c1.7-0.6,5.3-0.5,5.3-0.5s-2-0.1-5.4,1.7
		c-2.8,1.5-3.9,3.5-3.9,3.5s-0.3-2-2.1-3C29.4,5.1,27.8,5.6,27.8,5.6z"/>
</g>
</svg>
