<?xml version="1.0" encoding="utf-8"?>
<!-- Generator: Adobe Illustrator 22.1.0, SVG Export Plug-In . SVG Version: 6.00 Build 0)  -->
<svg version="1.1" id="Layer_1" xmlns="http://www.w3.org/2000/svg" xmlns:xlink="http://www.w3.org/1999/xlink" x="0px" y="0px"
	 viewBox="0 0 70 20" style="enable-background:new 0 0 70 20;" xml:space="preserve">
<style type="text/css">
	.st0{fill-rule:evenodd;clip-rule:evenodd;fill:#FFFFFF;}
	.st1{fill:#6F767B;}
	.st2{fill:url(#SVGID_1_);}
	.st3{fill:url(#SVGID_2_);}
	.st4{fill:url(#SVGID_3_);}
	.st5{fill:url(#SVGID_4_);}
	.st6{fill:url(#SVGID_5_);}
	.st7{fill:url(#SVGID_6_);}
	.st8{fill:#FFFBC8;}
	.st9{fill:url(#SVGID_7_);}
	.st10{opacity:0.8;}
	.st11{fill:url(#SVGID_8_);}
	.st12{fill:url(#SVGID_9_);}
	.st13{opacity:0.9;}
	.st14{fill:url(#SVGID_10_);}
	.st15{fill:url(#SVGID_11_);}
	.st16{fill:url(#SVGID_12_);}
	.st17{fill:url(#SVGID_13_);}
	.st18{fill:none;}
	.st19{clip-path:url(#SVGID_15_);}
	.st20{fill:url(#SVGID_16_);}
	.st21{fill:url(#SVGID_17_);}
	.st22{filter:url(#Adobe_OpacityMaskFilter);}
	.st23{fill:url(#SVGID_19_);}
	.st24{mask:url(#SVGID_18_);fill:url(#SVGID_20_);}
	.st25{filter:url(#Adobe_OpacityMaskFilter_1_);}
	.st26{fill:url(#SVGID_22_);}
	.st27{mask:url(#SVGID_21_);fill:url(#SVGID_23_);}
	.st28{filter:url(#Adobe_OpacityMaskFilter_2_);}
	.st29{fill:url(#SVGID_25_);}
	.st30{opacity:0.62;mask:url(#SVGID_24_);}
	.st31{fill:url(#SVGID_26_);}
	.st32{filter:url(#Adobe_OpacityMaskFilter_3_);}
	.st33{fill:url(#SVGID_28_);}
	.st34{opacity:0.37;mask:url(#SVGID_27_);}
	.st35{fill:url(#SVGID_29_);}
	.st36{filter:url(#Adobe_OpacityMaskFilter_4_);}
	.st37{fill:url(#SVGID_31_);}
	.st38{opacity:0.45;mask:url(#SVGID_30_);fill:url(#SVGID_32_);}
	.st39{filter:url(#Adobe_OpacityMaskFilter_5_);}
	.st40{fill:url(#SVGID_34_);}
	.st41{opacity:0.5;mask:url(#SVGID_33_);}
	.st42{fill:url(#SVGID_35_);}
	.st43{filter:url(#Adobe_OpacityMaskFilter_6_);}
	.st44{fill:url(#SVGID_37_);}
	.st45{opacity:0.75;mask:url(#SVGID_36_);fill:url(#SVGID_38_);}
	.st46{filter:url(#Adobe_OpacityMaskFilter_7_);}
	.st47{fill:url(#SVGID_40_);}
	.st48{opacity:0.65;mask:url(#SVGID_39_);fill:url(#SVGID_41_);}
	.st49{filter:url(#Adobe_OpacityMaskFilter_8_);}
	.st50{fill:url(#SVGID_43_);}
	.st51{opacity:0.37;mask:url(#SVGID_42_);fill:url(#SVGID_44_);}
	.st52{fill:url(#SVGID_45_);}
	.st53{fill:#ED1A77;}
	.st54{fill:#00799E;}
	.st55{fill:#23BBB8;}
	.st56{fill:#0092D0;}
	.st57{fill:#F9A51A;}
	.st58{fill:#FFCB31;}
	.st59{fill-rule:evenodd;clip-rule:evenodd;fill:#0071BB;}
	.st60{fill-rule:evenodd;clip-rule:evenodd;fill:#00ADEE;}
	.st61{fill-rule:evenodd;clip-rule:evenodd;fill:#2E3191;}
	.st62{fill-rule:evenodd;clip-rule:evenodd;fill:#F6921E;}
	.st63{fill-rule:evenodd;clip-rule:evenodd;fill:#FFF100;}
	.st64{fill-rule:evenodd;clip-rule:evenodd;fill:#EC1C24;}
	.st65{fill-rule:evenodd;clip-rule:evenodd;fill:#231F20;}
	.st66{fill:#5BCBF5;}
	.st67{fill:#DA2128;}
	.st68{fill:#8D1417;}
	.st69{fill:#FAAB41;}
	.st70{fill:#231F20;}
	.st71{fill:#FFFFFF;}
	.st72{fill:none;stroke:#BE7C68;stroke-width:0.5;stroke-miterlimit:10;}
</style>
<rect x="3" y="1.5" class="st0" width="64" height="17"/>
<rect x="0" class="st0" width="70" height="20"/>
<g>
	<path class="st59" d="M4.8,9.8c4.8-0.1,7.9-2.1,9.6-3.7C13.7,5.3,13,4.5,12,3.9C10.3,7.4,7.3,9.2,4.8,9.8L4.8,9.8L4.8,9.8z"/>
	<path class="st60" d="M14.6,6.5c-1.4,1.4-3.7,2.7-6.2,3.2v0.1h7.3C15.7,8.8,15.3,7.6,14.6,6.5L14.6,6.5z"/>
	<path class="st61" d="M2,9.9c3.7,0,7.4-2,9.6-6.2C10.6,3.3,9.6,3,8.4,3C8.4,4.9,7.5,9.4,2,9.9L2,9.9L2,9.9z"/>
	<path class="st62" d="M12.6,10.2c-4.8,0.1-7.6,2.2-9.3,3.8c0.6,0.8,1.1,1.4,2.1,2C7.1,12.6,10.1,10.8,12.6,10.2L12.6,10.2
		L12.6,10.2z"/>
	<path class="st63" d="M3.1,13.7c1.4-1.4,3.4-2.8,5.9-3.4v-0.1l-7,0.1C2,11.3,2.4,12.5,3.1,13.7L3.1,13.7z"/>
	<path class="st64" d="M15.7,10.2c-3.7,0-7.7,1.9-9.9,6C6.8,16.7,7.8,17,9,17C9,15.1,10.1,10.8,15.7,10.2L15.7,10.2L15.7,10.2z"/>
	<path class="st61" d="M20,12.1L20,12.1c0.5-0.1,0.7-0.5,0.7-0.9c0-0.6-0.5-0.9-1.4-0.9H17v0.2c0.2,0,0.3,0.2,0.3,0.4v2.5
		c0,0.2-0.1,0.4-0.3,0.4V14h2.5c0.9,0,1.4-0.3,1.4-1C21,12.5,20.6,12.1,20,12.1L20,12.1z M18.5,10.8H19c0.3,0,0.5,0.2,0.5,0.5
		c0,0.3-0.2,0.5-0.5,0.5h-0.5V10.8L18.5,10.8z M19,13.4h-0.6v-1.2H19c0.3,0,0.6,0.3,0.6,0.6C19.6,13.1,19.4,13.4,19,13.4L19,13.4z"
		/>
	<path class="st61" d="M24.4,13.4v-1.2c0-0.8-0.6-1-1.5-1c-0.4,0-0.9,0.1-1.2,0.2l-0.1,0.8h0.2l0.1-0.1c0.1-0.3,0.4-0.4,0.7-0.4
		c0.5,0,0.6,0.2,0.6,0.4v0.1c-0.3,0.1-0.8,0.2-1.2,0.3c-0.3,0-0.7,0.3-0.7,0.8c0,0.5,0.4,0.9,0.9,0.9c0.4,0,0.8-0.2,1-0.5h0.1l0,0.4
		c0.4,0,0.8,0,1.3,0v-0.2C24.4,13.8,24.4,13.6,24.4,13.4L24.4,13.4z M23.2,13.1c0,0.1-0.2,0.3-0.4,0.3c-0.2,0-0.4-0.1-0.4-0.4
		c0-0.2,0.2-0.3,0.4-0.4c0.1,0,0.3-0.1,0.4-0.2V13.1L23.2,13.1z"/>
	<path class="st61" d="M26.4,13.4v-2.7c0-0.2,0-0.6,0-0.8l0,0c-0.5,0.2-1,0.3-1.5,0.4v0.2c0.2,0,0.4,0.2,0.4,0.4v2.6
		c0,0.2-0.1,0.4-0.3,0.4V14c0.6,0,1.2,0,1.7,0v-0.2C26.5,13.8,26.4,13.6,26.4,13.4L26.4,13.4z"/>
	<path class="st61" d="M30.1,13.3l-0.6-1.2l0.6-0.6c0.1-0.1,0.1-0.1,0.2-0.1v-0.2h-1.5v0.2c0.2,0,0.4,0.1,0.4,0.2
		c0,0.1,0,0.1-0.1,0.2l-0.5,0.6h-0.2v-1.8c0-0.2,0-0.6,0-0.8c-0.5,0.2-1,0.3-1.5,0.4v0.2c0.2,0,0.4,0.2,0.4,0.4v2.6
		c0,0.2-0.1,0.4-0.3,0.4V14c0.6,0,1.2,0,1.7,0v-0.2c-0.2,0-0.3-0.2-0.3-0.4v-0.7h0.1l0.4,0.9c0,0.1,0.1,0.2,0.2,0.3
		c0.5,0,0.9,0,1.3,0v-0.2C30.5,13.8,30.2,13.6,30.1,13.3L30.1,13.3z"/>
	<path class="st61" d="M33.9,13.4v-1.2c0-0.8-0.6-1-1.5-1c-0.4,0-0.9,0.1-1.2,0.2l-0.1,0.8h0.2l0.1-0.1c0.1-0.3,0.4-0.4,0.7-0.4
		c0.5,0,0.6,0.2,0.6,0.4v0.1c-0.3,0.1-0.8,0.2-1.2,0.3c-0.3,0-0.7,0.3-0.7,0.8c0,0.5,0.4,0.9,0.9,0.9c0.4,0,0.8-0.2,1-0.5h0.1l0,0.4
		c0.4,0,0.8,0,1.3,0v-0.2C33.9,13.8,33.9,13.6,33.9,13.4L33.9,13.4z M32.8,13.1c0,0.1-0.2,0.3-0.4,0.3c-0.2,0-0.4-0.1-0.4-0.4
		c0-0.2,0.2-0.3,0.4-0.4c0.1,0,0.3-0.1,0.4-0.2V13.1L32.8,13.1z"/>
	<path class="st61" d="M37.8,13.4v-1.2c0-0.7-0.4-1-0.9-1c-0.4,0-0.7,0.2-0.9,0.4c0-0.2,0-0.4,0-0.6l-0.1,0
		c-0.5,0.2-0.9,0.3-1.4,0.4v0.2c0.2,0,0.4,0.2,0.4,0.4v1.4c0,0.2-0.1,0.4-0.3,0.4V14c0.6,0,1.1,0,1.7,0v-0.2c-0.1,0-0.3-0.2-0.3-0.4
		v-1.2c0.1-0.1,0.2-0.2,0.4-0.2c0.1,0,0.3,0.1,0.3,0.3v1.1c0,0.2-0.1,0.4-0.3,0.4V14c0.6,0,1.1,0,1.7,0v-0.2
		C38,13.8,37.8,13.6,37.8,13.4L37.8,13.4z"/>
	<path class="st61" d="M42.8,10.2v0.2c0.2,0,0.3,0.2,0.3,0.4v0.9h-1.5v-0.9c0-0.2,0.1-0.4,0.3-0.4v-0.2c-0.6,0-1.1,0-1.7,0v0.2
		c0.2,0,0.3,0.2,0.3,0.4v2.5c0,0.2-0.1,0.4-0.3,0.4V14c0.6,0,1.2,0,1.7,0v-0.2c-0.2,0-0.3-0.2-0.3-0.4v-1.2h1.5v1.2
		c0,0.2-0.1,0.4-0.3,0.4V14c0.6,0,1.2,0,1.7,0v-0.2c-0.2,0-0.3-0.2-0.3-0.4v-2.5c0-0.2,0.1-0.4,0.3-0.4v-0.2
		C43.9,10.3,43.4,10.3,42.8,10.2L42.8,10.2z"/>
	<path class="st61" d="M46.6,11.2c-0.7,0-1,0.2-1.3,0.4c-0.3,0.2-0.4,0.6-0.4,1c0,0.4,0.1,0.7,0.4,1c0.3,0.3,0.5,0.4,1.3,0.4
		c0.7,0,1-0.2,1.3-0.4c0.3-0.2,0.4-0.6,0.4-1c0-0.4-0.1-0.7-0.4-1C47.6,11.3,47.3,11.2,46.6,11.2L46.6,11.2z M46.6,13.5
		c-0.3,0-0.5-0.3-0.5-0.9c0-0.7,0.2-0.9,0.5-0.9c0.3,0,0.5,0.2,0.5,0.9C47.1,13.3,46.9,13.5,46.6,13.5L46.6,13.5z"/>
	<path class="st61" d="M50.1,13.4v-2.7c0-0.2,0-0.6,0-0.8l0,0c-0.5,0.2-1,0.3-1.5,0.4v0.2c0.2,0,0.4,0.2,0.4,0.4v2.6
		c0,0.2-0.1,0.4-0.3,0.4V14c0.6,0,1.2,0,1.7,0v-0.2C50.2,13.8,50.1,13.6,50.1,13.4L50.1,13.4z"/>
	<path class="st61" d="M52.1,13.4v-1.6c0-0.2,0-0.6,0-0.8l0,0c-0.5,0.2-1,0.3-1.5,0.4v0.2c0.2,0,0.4,0.2,0.4,0.4v1.4
		c0,0.2-0.1,0.4-0.3,0.4V14c0.6,0,1.2,0,1.7,0v-0.2C52.2,13.8,52.1,13.6,52.1,13.4L52.1,13.4z"/>
	<path class="st61" d="M51.5,10.9c0.4,0,0.7-0.2,0.7-0.5c0-0.3-0.3-0.5-0.7-0.5c-0.4,0-0.7,0.2-0.7,0.5
		C50.8,10.7,51.1,10.9,51.5,10.9L51.5,10.9z"/>
	<path class="st61" d="M56.1,13.4v-2.7c0-0.2,0-0.5,0-0.8l0,0c-0.5,0.2-1,0.3-1.5,0.4v0.2c0.2,0,0.4,0.2,0.4,0.4l0,0.6
		c-0.2-0.2-0.4-0.3-0.9-0.3c-0.7,0-1.2,0.6-1.2,1.4c0,0.8,0.5,1.4,1.2,1.4c0.4,0,0.7-0.2,0.9-0.4H55V14c0.5,0,0.9,0,1.4,0v-0.2
		C56.2,13.8,56.1,13.6,56.1,13.4L56.1,13.4z M54.5,13.4c-0.3,0-0.5-0.3-0.5-0.8c0-0.6,0.2-0.8,0.5-0.8s0.5,0.1,0.5,0.8
		C55,13.3,54.8,13.4,54.5,13.4L54.5,13.4z"/>
	<path class="st61" d="M59.8,13.4v-1.2c0-0.8-0.6-1-1.5-1c-0.4,0-0.9,0.1-1.2,0.2L57,12.1h0.2l0.1-0.1c0.1-0.3,0.4-0.4,0.7-0.4
		c0.5,0,0.6,0.2,0.6,0.4v0.1c-0.3,0.1-0.8,0.2-1.2,0.3c-0.3,0-0.7,0.3-0.7,0.8c0,0.5,0.4,0.9,0.9,0.9c0.4,0,0.8-0.2,1-0.5h0.1l0,0.4
		c0.4,0,0.8,0,1.3,0v-0.2C59.8,13.8,59.8,13.6,59.8,13.4L59.8,13.4z M58.7,13.1c0,0.1-0.2,0.3-0.4,0.3c-0.2,0-0.4-0.1-0.4-0.4
		c0-0.2,0.2-0.3,0.4-0.4c0.1,0,0.3-0.1,0.4-0.2V13.1L58.7,13.1z"/>
	<path class="st61" d="M62.2,11.2v0.2c0.2,0,0.3,0.2,0.3,0.4L62.1,13l0,0l-0.3-1.2c-0.1-0.2,0.1-0.4,0.2-0.4v-0.2
		c-0.6,0-1.1,0-1.7,0v0.2c0.2,0,0.2,0.2,0.3,0.4l0.7,2h0.6c-0.1,0.3-0.3,0.5-0.6,0.5c-0.2,0-0.4-0.2-0.5-0.4h-0.2v0.8
		c0.1,0.2,0.4,0.3,0.6,0.3c0.6,0,1.1-0.4,1.3-1l0.6-2.1c0.1-0.2,0.2-0.4,0.4-0.4v-0.2C63,11.2,62.6,11.2,62.2,11.2L62.2,11.2z"/>
	<path class="st61" d="M65.6,12.2c-0.4-0.1-0.7-0.1-0.7-0.3c0-0.2,0.2-0.3,0.5-0.3c0.3,0,0.6,0.1,0.7,0.4l0.1,0.1h0.2l-0.1-0.7
		c-0.3-0.1-0.7-0.2-1.1-0.2c-0.9,0-1.4,0.3-1.4,1.1c0,0.4,0.5,0.6,0.9,0.7c0.4,0.1,0.7,0.1,0.7,0.3c0,0.2-0.1,0.4-0.5,0.3
		c-0.3,0-0.6-0.1-0.8-0.5L64,12.9h-0.2l-0.1,0.8c0.3,0.2,0.7,0.3,1.2,0.3c0.9,0,1.5-0.5,1.5-1C66.5,12.4,66,12.2,65.6,12.2
		L65.6,12.2z"/>
	<path class="st65" d="M67.4,9.8c-0.4,0-0.6,0.3-0.6,0.6c0,0.4,0.3,0.6,0.6,0.6c0.3,0,0.6-0.3,0.6-0.6C68,10,67.7,9.8,67.4,9.8
		L67.4,9.8z M67.4,10.9c-0.3,0-0.5-0.2-0.5-0.5c0-0.3,0.2-0.5,0.5-0.5c0.3,0,0.5,0.2,0.5,0.5C67.9,10.7,67.6,10.9,67.4,10.9
		L67.4,10.9z"/>
	<path class="st65" d="M67.6,10.3c0-0.1-0.1-0.2-0.3-0.2h-0.3v0.7h0.1v-0.3h0.1l0.2,0.3h0.1l-0.2-0.3C67.6,10.4,67.6,10.4,67.6,10.3
		L67.6,10.3z M67.2,10.4v-0.2h0.2c0.1,0,0.2,0,0.2,0.1c0,0.1-0.1,0.1-0.2,0.1H67.2L67.2,10.4z"/>
</g>
</svg>
