<?xml version="1.0" encoding="utf-8"?>
<!-- Generator: Adobe Illustrator 22.1.0, SVG Export Plug-In . SVG Version: 6.00 Build 0)  -->
<svg version="1.1" id="Layer_1" xmlns="http://www.w3.org/2000/svg" xmlns:xlink="http://www.w3.org/1999/xlink" x="0px" y="0px"
	 viewBox="0 0 70 20" style="enable-background:new 0 0 70 20;" xml:space="preserve">
<style type="text/css">
	.st0{fill-rule:evenodd;clip-rule:evenodd;fill:#FFFFFF;}
	.st1{fill:#6F767B;}
	.st2{fill:url(#SVGID_1_);}
	.st3{fill:url(#SVGID_2_);}
	.st4{fill:url(#SVGID_3_);}
	.st5{fill:url(#SVGID_4_);}
	.st6{fill:url(#SVGID_5_);}
	.st7{fill:url(#SVGID_6_);}
	.st8{fill:#FFFBC8;}
	.st9{fill:url(#SVGID_7_);}
	.st10{opacity:0.8;}
	.st11{fill:url(#SVGID_8_);}
	.st12{fill:url(#SVGID_9_);}
	.st13{opacity:0.9;}
	.st14{fill:url(#SVGID_10_);}
	.st15{fill:url(#SVGID_11_);}
	.st16{fill:url(#SVGID_12_);}
	.st17{fill:url(#SVGID_13_);}
	.st18{fill:none;}
	.st19{clip-path:url(#SVGID_15_);}
	.st20{fill:url(#SVGID_16_);}
	.st21{fill:url(#SVGID_17_);}
	.st22{filter:url(#Adobe_OpacityMaskFilter);}
	.st23{fill:url(#SVGID_19_);}
	.st24{mask:url(#SVGID_18_);fill:url(#SVGID_20_);}
	.st25{filter:url(#Adobe_OpacityMaskFilter_1_);}
	.st26{fill:url(#SVGID_22_);}
	.st27{mask:url(#SVGID_21_);fill:url(#SVGID_23_);}
	.st28{filter:url(#Adobe_OpacityMaskFilter_2_);}
	.st29{fill:url(#SVGID_25_);}
	.st30{opacity:0.62;mask:url(#SVGID_24_);}
	.st31{fill:url(#SVGID_26_);}
	.st32{filter:url(#Adobe_OpacityMaskFilter_3_);}
	.st33{fill:url(#SVGID_28_);}
	.st34{opacity:0.37;mask:url(#SVGID_27_);}
	.st35{fill:url(#SVGID_29_);}
	.st36{filter:url(#Adobe_OpacityMaskFilter_4_);}
	.st37{fill:url(#SVGID_31_);}
	.st38{opacity:0.45;mask:url(#SVGID_30_);fill:url(#SVGID_32_);}
	.st39{filter:url(#Adobe_OpacityMaskFilter_5_);}
	.st40{fill:url(#SVGID_34_);}
	.st41{opacity:0.5;mask:url(#SVGID_33_);}
	.st42{fill:url(#SVGID_35_);}
	.st43{filter:url(#Adobe_OpacityMaskFilter_6_);}
	.st44{fill:url(#SVGID_37_);}
	.st45{opacity:0.75;mask:url(#SVGID_36_);fill:url(#SVGID_38_);}
	.st46{filter:url(#Adobe_OpacityMaskFilter_7_);}
	.st47{fill:url(#SVGID_40_);}
	.st48{opacity:0.65;mask:url(#SVGID_39_);fill:url(#SVGID_41_);}
	.st49{filter:url(#Adobe_OpacityMaskFilter_8_);}
	.st50{fill:url(#SVGID_43_);}
	.st51{opacity:0.37;mask:url(#SVGID_42_);fill:url(#SVGID_44_);}
	.st52{fill:url(#SVGID_45_);}
	.st53{fill:#ED1A77;}
	.st54{fill:#00799E;}
	.st55{fill:#23BBB8;}
	.st56{fill:#0092D0;}
	.st57{fill:#F9A51A;}
	.st58{fill:#FFCB31;}
	.st59{fill-rule:evenodd;clip-rule:evenodd;fill:#0071BB;}
	.st60{fill-rule:evenodd;clip-rule:evenodd;fill:#00ADEE;}
	.st61{fill-rule:evenodd;clip-rule:evenodd;fill:#2E3191;}
	.st62{fill-rule:evenodd;clip-rule:evenodd;fill:#F6921E;}
	.st63{fill-rule:evenodd;clip-rule:evenodd;fill:#FFF100;}
	.st64{fill-rule:evenodd;clip-rule:evenodd;fill:#EC1C24;}
	.st65{fill-rule:evenodd;clip-rule:evenodd;fill:#231F20;}
	.st66{fill:#5BCBF5;}
	.st67{fill:#DA2128;}
	.st68{fill:#8D1417;}
	.st69{fill:#FAAB41;}
	.st70{fill:#231F20;}
	.st71{fill:#FFFFFF;}
	.st72{fill:none;stroke:#BE7C68;stroke-width:0.5;stroke-miterlimit:10;}
</style>
<rect class="st0" width="70" height="20"/>
<g id="FC_THOAI">
	<path id="Solaris_1_" class="st53" d="M15.3,12c-0.6-0.4-1.5-0.7-2.4-0.9C12.6,11,12.1,11,11.6,11c-0.2-0.4-0.3-0.7-0.3-1v0
		c0-0.3,0.1-0.6,0.3-1c0.5,0,1-0.1,1.3-0.1c1-0.2,1.8-0.5,2.4-0.9c0.2-0.1,0.3-0.2,0.4-0.3C16.2,7.1,16.3,6.6,16,6
		c-0.3-0.6-0.9-0.8-1.6-0.6c-0.2,0-0.3,0.1-0.5,0.2c-0.7,0.3-1.4,0.9-2,1.6c-0.2,0.2-0.5,0.6-0.8,1.1c-0.4,0-0.7-0.1-1-0.2l0,0
		C10,7.9,9.7,7.7,9.5,7.4C9.8,6.9,9.9,6.5,10,6.2c0.3-0.9,0.5-1.8,0.4-2.6c0-0.2,0-0.4-0.1-0.5C10.2,2.4,9.8,2,9.1,2
		C8.4,2,8,2.4,7.8,3.1c0,0.2-0.1,0.3-0.1,0.5C7.7,4.3,7.8,5.3,8.1,6.2c0.1,0.3,0.3,0.7,0.5,1.2C8.4,7.7,8.2,7.9,8,8.1l0,0
		C7.7,8.2,7.4,8.3,7,8.3C6.7,7.9,6.4,7.5,6.3,7.3c-0.6-0.7-1.4-1.3-2-1.6C4.1,5.5,3.9,5.5,3.7,5.4C3.1,5.3,2.5,5.4,2.2,6
		C1.9,6.6,2,7.1,2.5,7.7C2.6,7.8,2.7,7.9,2.9,8c0.6,0.4,1.5,0.7,2.4,0.9C5.6,9,6.1,9,6.6,9c0.2,0.4,0.3,0.7,0.3,1v0
		c0,0.3-0.1,0.6-0.3,0.9c-0.5,0-1,0.1-1.3,0.1c-1,0.2-1.8,0.5-2.4,0.9c-0.2,0.1-0.3,0.2-0.4,0.3C2,12.9,1.9,13.4,2.2,14
		c0.3,0.6,0.9,0.8,1.6,0.6c0.2,0,0.3-0.1,0.5-0.2c0.7-0.3,1.4-0.9,2-1.6c0.2-0.2,0.5-0.6,0.8-1.1c0.4,0,0.7,0.1,1,0.2l0,0
		c0.2,0.1,0.5,0.4,0.7,0.7c-0.3,0.5-0.4,0.9-0.5,1.2c-0.3,0.9-0.5,1.8-0.4,2.6c0,0.2,0,0.4,0.1,0.5C8,17.6,8.4,18,9.1,18
		c0.7,0,1.1-0.4,1.3-1.1c0-0.2,0.1-0.3,0.1-0.5c0.1-0.7-0.1-1.6-0.4-2.6c-0.1-0.3-0.3-0.7-0.5-1.2c0.2-0.3,0.5-0.6,0.7-0.7l0,0
		c0.2-0.1,0.6-0.2,1-0.2c0.3,0.5,0.6,0.8,0.8,1.1c0.6,0.7,1.4,1.3,2,1.6c0.2,0.1,0.3,0.1,0.5,0.2c0.7,0.2,1.2,0,1.6-0.6
		c0.3-0.6,0.2-1.1-0.3-1.6C15.6,12.2,15.5,12.1,15.3,12z M12.5,7.7c0.6-0.7,1.4-1.3,1.9-1.5c0.1,0,0.1-0.1,0.2-0.1
		c0.5-0.1,0.6,0.1,0.7,0.2c0.1,0.2,0.2,0.4-0.2,0.8c0,0-0.1,0.1-0.2,0.1c-0.5,0.4-1.3,0.7-2.3,0.9c-0.2,0-0.5,0.1-0.7,0.1
		C12.2,8.1,12.3,7.9,12.5,7.7z M5.4,8.2C4.5,8,3.6,7.7,3.1,7.3C3.1,7.2,3,7.2,3,7.1C2.6,6.8,2.7,6.6,2.8,6.4C2.9,6.2,3.1,6,3.6,6.1
		c0.1,0,0.1,0,0.2,0.1C4.4,6.4,5.1,7,5.7,7.7C5.9,7.9,6,8.1,6.1,8.3C5.9,8.3,5.7,8.3,5.4,8.2z M5.7,12.3c-0.6,0.7-1.4,1.3-1.9,1.5
		c-0.1,0-0.1,0.1-0.2,0.1c-0.5,0.1-0.6-0.1-0.7-0.2c-0.1-0.2-0.2-0.4,0.2-0.8c0,0,0.1-0.1,0.2-0.1c0.5-0.4,1.3-0.7,2.3-0.9
		c0.2,0,0.5-0.1,0.7-0.1C6,11.9,5.9,12.1,5.7,12.3z M8.5,3.5c0-0.1,0-0.1,0-0.2c0.1-0.5,0.4-0.5,0.6-0.5c0.2,0,0.4,0.1,0.6,0.5
		c0,0.1,0,0.1,0,0.2c0.1,0.6,0,1.5-0.4,2.4C9.3,6.2,9.2,6.4,9.1,6.6C9,6.4,8.9,6.2,8.8,5.9C8.5,5,8.4,4.1,8.5,3.5z M9.7,16.5
		c0,0.1,0,0.1,0,0.2c-0.1,0.5-0.4,0.5-0.6,0.5c-0.2,0-0.4-0.1-0.6-0.5c0-0.1,0-0.1,0-0.2c-0.1-0.6,0-1.5,0.4-2.4
		c0.1-0.2,0.2-0.5,0.3-0.7c0.1,0.2,0.2,0.4,0.3,0.7C9.7,15,9.8,15.9,9.7,16.5z M10.6,10c0,0.3,0.1,0.7,0.2,1c-0.3,0-0.7,0.1-1,0.3
		c0,0,0,0,0,0c0,0,0,0,0,0c-0.3,0.2-0.5,0.4-0.7,0.7c-0.2-0.3-0.5-0.5-0.7-0.7c0,0,0,0,0,0c0,0,0,0,0,0C8,11.1,7.7,11,7.4,11
		c0.1-0.3,0.2-0.7,0.2-1v0c0,0,0,0,0,0c0-0.3-0.1-0.7-0.2-1c0.3,0,0.7-0.1,1-0.3c0,0,0,0,0,0c0,0,0,0,0,0C8.6,8.5,8.9,8.3,9.1,8
		c0.2,0.3,0.5,0.5,0.7,0.7c0,0,0,0,0,0c0,0,0,0,0,0c0.3,0.2,0.6,0.3,1,0.3C10.7,9.3,10.6,9.7,10.6,10L10.6,10
		C10.6,10,10.6,10,10.6,10z M15.4,13.6c-0.1,0.2-0.3,0.4-0.7,0.2c-0.1,0-0.1,0-0.2-0.1c-0.6-0.2-1.3-0.8-1.9-1.5
		c-0.2-0.2-0.3-0.4-0.4-0.6c0.2,0,0.5,0.1,0.7,0.1c1,0.2,1.8,0.5,2.3,0.9c0.1,0,0.1,0.1,0.2,0.1C15.5,13.2,15.5,13.4,15.4,13.6z"/>
	<g id="First_Choice">
		<g id="XMLID_38_">
			<path id="XMLID_35_" class="st53" d="M22.8,8.3c0,0.2-0.1,0.3-0.3,0.3h-1.6v1H22c0.2,0,0.3,0.1,0.3,0.3v0.3H22v0h-1.2v1.3
				c0,0.2-0.1,0.3-0.3,0.3h-0.3V8.3c0-0.2,0.1-0.3,0.3-0.3h2C22.6,8,22.8,8.2,22.8,8.3z"/>
			<path id="XMLID_33_" class="st53" d="M25.3,8.3v3.3c0,0.1,0,0.2-0.1,0.2C25.2,12,25.1,12,25,12h-0.3V8.3C24.7,8.2,24.8,8,25,8
				C25.2,8,25.3,8.2,25.3,8.3z"/>
			<path id="XMLID_126_" class="st53" d="M29.4,10.3c0.5-0.1,0.8-0.6,0.8-1.1c0-0.6-0.5-1.2-1.1-1.2h-1.3c-0.2,0-0.3,0.1-0.3,0.3
				v3.3c0,0,0,0,0,0V12h0.3c0.1,0,0.2-0.1,0.3-0.1c0-0.1,0.1-0.1,0.1-0.2v-1.3h0.6l0.7,1.5c0.1,0.2,0.3,0.2,0.4,0.1
				c0.2-0.1,0.2-0.3,0.1-0.4L29.4,10.3z M29.1,9.7h-1v-1h1c0.3,0,0.5,0.2,0.5,0.5C29.6,9.4,29.3,9.7,29.1,9.7
				C29.1,9.7,29.1,9.7,29.1,9.7z"/>
			<path id="XMLID_26_" class="st53" d="M34.2,10.1c0.2,0.2,0.3,0.5,0.3,0.7c0,0.3-0.1,0.6-0.4,0.8c-0.3,0.2-0.6,0.3-0.9,0.3
				c-0.3,0-0.6-0.1-0.8-0.2c-0.2-0.1-0.4-0.3-0.5-0.5c0,0,0,0,0,0l-0.2-0.4c0,0,0.3-0.1,0.3-0.2c0,0,0,0,0,0c0,0,0,0,0,0
				c0,0,0,0,0,0c0,0,0.1,0,0.1,0c0,0,0.1,0,0.1,0c0.1,0,0.1,0.1,0.1,0.2c0,0,0,0,0,0c0,0.1,0.1,0.2,0.3,0.2c0.1,0.1,0.3,0.1,0.5,0.1
				c0.2,0,0.3-0.1,0.4-0.2c0.1-0.1,0.2-0.2,0.2-0.4c0-0.1,0-0.2-0.1-0.3c-0.1-0.1-0.3-0.2-0.6-0.2h0c-0.5,0-0.8-0.1-1-0.4
				c-0.2-0.2-0.3-0.5-0.3-0.7c0-0.3,0.1-0.6,0.4-0.8C32.5,8.1,32.8,8,33.1,8c0.3,0,0.6,0.1,0.8,0.2c0.3,0.2,0.5,0.4,0.5,0.7
				c0,0.1,0,0.2,0,0.2c0,0.1-0.1,0.1-0.2,0.1c-0.1,0-0.2,0-0.2,0c-0.1,0-0.1-0.1-0.1-0.2c0-0.1-0.1-0.2-0.3-0.3
				c-0.1-0.1-0.3-0.1-0.5-0.1c-0.2,0-0.3,0.1-0.4,0.2c-0.1,0.1-0.2,0.2-0.2,0.4c0,0.1,0,0.2,0.1,0.3c0.1,0.1,0.3,0.2,0.6,0.2h0
				C33.6,9.7,34,9.8,34.2,10.1z"/>
			<path id="XMLID_34_" class="st53" d="M39,8.3c0,0.2-0.1,0.3-0.3,0.3h-0.8v3c0,0.2-0.1,0.3-0.3,0.3h-0.3V8.7h-0.8
				c-0.2,0-0.3-0.1-0.3-0.3c0-0.2,0.1-0.3,0.3-0.3h2.3C38.9,8,39,8.2,39,8.3z"/>
		</g>
		<g id="XMLID_39_">
			<path id="XMLID_25_" class="st53" d="M45.4,11.2L45.1,11c-0.1-0.1-0.1-0.1-0.2-0.1c-0.1,0-0.2,0-0.2,0.1c0,0,0,0,0,0
				c-0.3,0.2-0.5,0.3-0.9,0.3c-0.4,0-0.7-0.1-0.9-0.4c-0.3-0.3-0.4-0.6-0.4-0.9c0-0.4,0.1-0.7,0.4-0.9c0.3-0.3,0.6-0.4,0.9-0.4
				c0.3,0,0.6,0.1,0.8,0.3C44.7,9,44.7,9,44.8,9C44.9,9,45,9,45.1,8.9c0.1-0.1,0.1-0.2,0.1-0.2c0-0.1-0.1-0.2-0.1-0.2
				C44.6,8.2,44.2,8,43.8,8c-0.5,0-1,0.2-1.4,0.6C42,9,41.8,9.5,41.8,10c0,0.5,0.2,1,0.6,1.4c0.4,0.4,0.9,0.6,1.4,0.6
				c0.5,0,1-0.2,1.3-0.5C45.1,11.5,45.4,11.2,45.4,11.2z"/>
			<path id="XMLID_30_" class="st53" d="M50,11.7V8.3C50,8.2,49.9,8,49.7,8c-0.2,0-0.3,0.1-0.3,0.3v1.3h-1.7V8.3
				c0-0.2-0.1-0.3-0.3-0.3C47.1,8,47,8.2,47,8.3v3.3c0,0,0,0,0,0V12h0.3c0,0,0,0,0.1,0c0.1,0,0.3-0.2,0.3-0.3c0,0,0,0,0,0v-1.3h1.7
				v1.3V12h0.3C49.9,12,50,11.8,50,11.7C50,11.7,50,11.7,50,11.7z"/>
			<path id="XMLID_120_" class="st53" d="M53.8,12c-0.5,0-1-0.2-1.4-0.6C52,11,51.8,10.5,51.8,10c0-0.5,0.2-1,0.6-1.4
				C52.8,8.2,53.3,8,53.8,8c0.5,0,1,0.2,1.4,0.6c0.4,0.4,0.6,0.9,0.6,1.4c0,0.5-0.2,1-0.6,1.4C54.8,11.8,54.4,12,53.8,12z M53.8,8.7
				c-0.4,0-0.7,0.1-0.9,0.4c-0.3,0.3-0.4,0.6-0.4,0.9c0,0.4,0.1,0.7,0.4,0.9c0.3,0.3,0.6,0.4,0.9,0.4c0.4,0,0.7-0.1,0.9-0.4
				c0.3-0.3,0.4-0.6,0.4-0.9c0-0.4-0.1-0.7-0.4-0.9C54.5,8.8,54.2,8.7,53.8,8.7z"/>
			<path id="XMLID_29_" class="st53" d="M58.4,11.7V8.3c0-0.2-0.1-0.3-0.3-0.3c-0.2,0-0.3,0.1-0.3,0.3v3.3c0,0,0,0,0,0V12h0.3
				C58.2,12,58.4,11.8,58.4,11.7C58.4,11.7,58.4,11.7,58.4,11.7z"/>
			<path id="XMLID_28_" class="st53" d="M67.7,11.3H66v-1h1.2v0h0.3V10c0,0,0,0,0-0.1c0,0,0,0,0-0.1c0,0-0.1-0.1-0.1-0.1
				c0,0,0,0-0.1,0c0,0-0.1,0-0.2,0H66v-1h1.6c0.2,0,0.3-0.1,0.3-0.3C68,8.2,67.9,8,67.7,8h-2c-0.2,0-0.3,0.1-0.3,0.3v3.3V12h0.3l0,0
				l0,0h2H68v-0.3C68,11.5,67.9,11.3,67.7,11.3z"/>
			<path id="XMLID_27_" class="st53" d="M63.8,11.2L63.5,11c-0.1-0.1-0.1-0.1-0.2-0.1c-0.1,0-0.2,0-0.2,0.1c0,0,0,0,0,0
				c-0.3,0.2-0.5,0.3-0.9,0.3c-0.4,0-0.7-0.1-0.9-0.4c-0.3-0.3-0.4-0.6-0.4-0.9c0-0.4,0.1-0.7,0.4-0.9c0.3-0.3,0.6-0.4,0.9-0.4
				c0.3,0,0.6,0.1,0.8,0.3C63.1,9,63.2,9,63.2,9c0.1,0,0.2-0.1,0.2-0.1c0.1-0.1,0.1-0.2,0.1-0.2c0-0.1-0.1-0.2-0.1-0.2
				C63,8.1,62.6,8,62.2,8c-0.5,0-1,0.2-1.4,0.6C60.4,9,60.2,9.5,60.2,10c0,0.5,0.2,1,0.6,1.4c0.4,0.4,0.9,0.6,1.4,0.6
				c0.5,0,1-0.2,1.3-0.5C63.6,11.5,63.8,11.2,63.8,11.2z"/>
		</g>
	</g>
	<g id="Strapline">
		<path id="XMLID_112_" class="st53" d="M20.9,15h-0.6c-0.1,0-0.1,0-0.1-0.1c0-0.1,0.1-0.1,0.1-0.1h1.5c0.1,0,0.1,0.1,0.1,0.1
			c0,0.1-0.1,0.1-0.1,0.1h-0.6v1.8c0,0.1-0.1,0.1-0.1,0.1c-0.1,0-0.1-0.1-0.1-0.1V15z"/>
		<path id="XMLID_110_" class="st53" d="M22.3,14.9c0-0.1,0.1-0.1,0.1-0.1c0.1,0,0.1,0.1,0.1,0.1v0.8h1.2v-0.8
			c0-0.1,0.1-0.1,0.1-0.1c0.1,0,0.1,0.1,0.1,0.1v1.9c0,0.1-0.1,0.1-0.1,0.1c-0.1,0-0.1-0.1-0.1-0.1V16h-1.2v0.9
			c0,0.1-0.1,0.1-0.1,0.1c-0.1,0-0.1-0.1-0.1-0.1V14.9z"/>
		<path id="XMLID_108_" class="st53" d="M24.7,16.8v-1.9c0-0.1,0.1-0.1,0.1-0.1h1.3c0.1,0,0.1,0,0.1,0.1c0,0.1,0,0.1-0.1,0.1h-1.2
			v0.7H26c0.1,0,0.1,0.1,0.1,0.1c0,0.1,0,0.1-0.1,0.1h-1.1v0.8h1.2c0.1,0,0.1,0,0.1,0.1c0,0.1,0,0.1-0.1,0.1h-1.4
			C24.8,16.9,24.7,16.9,24.7,16.8z"/>
		<path id="XMLID_106_" class="st53" d="M27.7,14.9c0-0.1,0.1-0.1,0.1-0.1c0.1,0,0.1,0.1,0.1,0.1v0.8h1.2v-0.8
			c0-0.1,0.1-0.1,0.1-0.1c0.1,0,0.1,0.1,0.1,0.1v1.9c0,0.1-0.1,0.1-0.1,0.1c-0.1,0-0.1-0.1-0.1-0.1V16H28v0.9c0,0.1-0.1,0.1-0.1,0.1
			c-0.1,0-0.1-0.1-0.1-0.1V14.9z"/>
		<path id="XMLID_103_" class="st53" d="M30,15.9L30,15.9c0-0.6,0.4-1.1,1.1-1.1c0.7,0,1.1,0.5,1.1,1.1v0c0,0.6-0.4,1.1-1.1,1.1
			S30,16.5,30,15.9z M31.9,15.9L31.9,15.9c0-0.5-0.4-0.9-0.8-0.9s-0.8,0.4-0.8,0.9v0c0,0.5,0.4,0.9,0.8,0.9
			C31.6,16.8,31.9,16.4,31.9,15.9z"/>
		<path id="XMLID_101_" class="st53" d="M32.7,14.9c0-0.1,0.1-0.1,0.1-0.1h0c0.1,0,0.1,0,0.1,0.1l0.8,1.2l0.8-1.2
			c0,0,0.1-0.1,0.1-0.1h0c0.1,0,0.1,0.1,0.1,0.1v1.9c0,0.1-0.1,0.1-0.1,0.1c-0.1,0-0.1-0.1-0.1-0.1v-1.6l-0.7,1c0,0-0.1,0.1-0.1,0.1
			c0,0-0.1,0-0.1-0.1l-0.7-1v1.6c0,0.1-0.1,0.1-0.1,0.1c-0.1,0-0.1-0.1-0.1-0.1V14.9z"/>
		<path id="XMLID_99_" class="st53" d="M35.4,16.8v-1.9c0-0.1,0.1-0.1,0.1-0.1h1.3c0.1,0,0.1,0,0.1,0.1c0,0.1,0,0.1-0.1,0.1h-1.2
			v0.7h1.1c0.1,0,0.1,0.1,0.1,0.1c0,0.1,0,0.1-0.1,0.1h-1.1v0.8h1.2c0.1,0,0.1,0,0.1,0.1c0,0.1,0,0.1-0.1,0.1h-1.4
			C35.5,16.9,35.4,16.9,35.4,16.8z"/>
		<path id="XMLID_96_" class="st53" d="M38.4,15.9L38.4,15.9c0-0.6,0.4-1.1,1.1-1.1c0.7,0,1.1,0.5,1.1,1.1v0c0,0.6-0.4,1.1-1.1,1.1
			C38.8,17,38.4,16.5,38.4,15.9z M40.3,15.9L40.3,15.9c0-0.5-0.4-0.9-0.8-0.9c-0.5,0-0.8,0.4-0.8,0.9v0c0,0.5,0.4,0.9,0.8,0.9
			C39.9,16.8,40.3,16.4,40.3,15.9z"/>
		<path id="XMLID_94_" class="st53" d="M41.1,14.9c0-0.1,0.1-0.1,0.1-0.1h1.3c0.1,0,0.1,0,0.1,0.1c0,0.1,0,0.1-0.1,0.1h-1.2v0.8h1.1
			c0.1,0,0.1,0,0.1,0.1c0,0.1,0,0.1-0.1,0.1h-1.1v0.8c0,0.1-0.1,0.1-0.1,0.1c-0.1,0-0.1-0.1-0.1-0.1V14.9z"/>
		<path id="XMLID_91_" class="st53" d="M43.9,16.8l0.9-1.9c0-0.1,0.1-0.1,0.2-0.1h0c0.1,0,0.1,0,0.2,0.1l0.9,1.9c0,0,0,0,0,0.1
			c0,0.1-0.1,0.1-0.1,0.1c-0.1,0-0.1,0-0.1-0.1l-0.2-0.5h-1.2l-0.2,0.5c0,0.1-0.1,0.1-0.1,0.1C44,17,43.9,16.9,43.9,16.8
			C43.9,16.8,43.9,16.8,43.9,16.8z M45.5,16.2L45,15.1l-0.5,1.1H45.5z"/>
		<path id="XMLID_89_" class="st53" d="M46.5,14.9c0-0.1,0.1-0.1,0.1-0.1c0.1,0,0.1,0.1,0.1,0.1v1.8h1.1c0.1,0,0.1,0.1,0.1,0.1
			c0,0.1,0,0.1-0.1,0.1h-1.2c-0.1,0-0.1-0.1-0.1-0.1V14.9z"/>
		<path id="XMLID_87_" class="st53" d="M48.4,14.9c0-0.1,0.1-0.1,0.1-0.1c0.1,0,0.1,0.1,0.1,0.1v1.8h1.1c0.1,0,0.1,0.1,0.1,0.1
			c0,0.1,0,0.1-0.1,0.1h-1.2c-0.1,0-0.1-0.1-0.1-0.1V14.9z"/>
		<path id="XMLID_85_" class="st53" d="M51.3,14.9c0-0.1,0.1-0.1,0.1-0.1c0.1,0,0.1,0.1,0.1,0.1v1.9c0,0.1-0.1,0.1-0.1,0.1
			c-0.1,0-0.1-0.1-0.1-0.1V14.9z"/>
		<path id="XMLID_83_" class="st53" d="M52.2,14.9c0-0.1,0.1-0.1,0.1-0.1h0c0.1,0,0.1,0,0.1,0.1l1.3,1.7v-1.6c0-0.1,0.1-0.1,0.1-0.1
			c0.1,0,0.1,0.1,0.1,0.1v1.9c0,0.1,0,0.1-0.1,0.1h0c-0.1,0-0.1,0-0.1-0.1l-1.3-1.7v1.7c0,0.1-0.1,0.1-0.1,0.1
			c-0.1,0-0.1-0.1-0.1-0.1V14.9z"/>
		<path id="XMLID_81_" class="st53" d="M54.6,15.9L54.6,15.9c0-0.6,0.5-1.1,1.1-1.1c0.3,0,0.6,0.1,0.8,0.3c0,0,0,0.1,0,0.1
			c0,0.1-0.1,0.1-0.1,0.1c0,0-0.1,0-0.1,0c-0.2-0.1-0.4-0.2-0.6-0.2c-0.5,0-0.8,0.4-0.8,0.9v0c0,0.5,0.4,0.9,0.8,0.9
			c0.3,0,0.5-0.1,0.6-0.3c0,0,0,0,0.1,0c0.1,0,0.1,0.1,0.1,0.1c0,0,0,0.1,0,0.1C56.3,16.9,56,17,55.7,17C55,17,54.6,16.5,54.6,15.9z
			"/>
		<path id="XMLID_79_" class="st53" d="M57,14.9c0-0.1,0.1-0.1,0.1-0.1c0.1,0,0.1,0.1,0.1,0.1v1.8h1.1c0.1,0,0.1,0.1,0.1,0.1
			c0,0.1,0,0.1-0.1,0.1h-1.2c-0.1,0-0.1-0.1-0.1-0.1V14.9z"/>
		<path id="XMLID_77_" class="st53" d="M58.8,16v-1.1c0-0.1,0.1-0.1,0.1-0.1c0.1,0,0.1,0.1,0.1,0.1V16c0,0.5,0.2,0.7,0.7,0.7
			c0.4,0,0.6-0.2,0.6-0.7v-1.1c0-0.1,0.1-0.1,0.1-0.1c0.1,0,0.1,0.1,0.1,0.1V16c0,0.6-0.4,1-0.9,1C59.2,17,58.8,16.7,58.8,16z"/>
		<path id="XMLID_75_" class="st53" d="M61.1,16.7C61.1,16.7,61.1,16.6,61.1,16.7c0-0.2,0-0.2,0.1-0.2c0,0,0.1,0,0.1,0
			c0.2,0.2,0.4,0.3,0.7,0.3c0.3,0,0.5-0.2,0.5-0.4v0c0-0.2-0.1-0.3-0.6-0.4c-0.5-0.1-0.7-0.3-0.7-0.6v0c0-0.3,0.3-0.6,0.7-0.6
			c0.3,0,0.5,0.1,0.7,0.2c0,0,0.1,0.1,0.1,0.1c0,0.1-0.1,0.1-0.1,0.1c0,0,0,0-0.1,0C62.2,15,62,15,61.8,15c-0.3,0-0.5,0.2-0.5,0.3v0
			c0,0.2,0.1,0.3,0.6,0.4c0.5,0.1,0.7,0.3,0.7,0.6v0c0,0.4-0.3,0.6-0.7,0.6C61.6,17,61.4,16.9,61.1,16.7z"/>
		<path id="XMLID_73_" class="st53" d="M63.2,14.9c0-0.1,0.1-0.1,0.1-0.1c0.1,0,0.1,0.1,0.1,0.1v1.9c0,0.1-0.1,0.1-0.1,0.1
			c-0.1,0-0.1-0.1-0.1-0.1V14.9z"/>
		<path id="XMLID_71_" class="st53" d="M64.8,16.9L64,15c0,0,0,0,0-0.1c0-0.1,0.1-0.1,0.1-0.1c0.1,0,0.1,0,0.1,0.1l0.7,1.8l0.7-1.8
			c0,0,0.1-0.1,0.1-0.1c0.1,0,0.1,0.1,0.1,0.1c0,0,0,0,0,0l-0.8,1.9c0,0.1-0.1,0.1-0.1,0.1h0C64.9,17,64.8,16.9,64.8,16.9z"/>
		<path id="XMLID_4_" class="st53" d="M66.4,16.8v-1.9c0-0.1,0.1-0.1,0.1-0.1h1.3c0.1,0,0.1,0,0.1,0.1c0,0.1,0,0.1-0.1,0.1h-1.2v0.7
			h1.1c0.1,0,0.1,0.1,0.1,0.1c0,0.1,0,0.1-0.1,0.1h-1.1v0.8h1.2c0.1,0,0.1,0,0.1,0.1c0,0.1,0,0.1-0.1,0.1h-1.4
			C66.5,16.9,66.4,16.9,66.4,16.8z"/>
	</g>
</g>
</svg>
