<?xml version="1.0" encoding="utf-8"?>
<!-- Generator: Adobe Illustrator 22.1.0, SVG Export Plug-In . SVG Version: 6.00 Build 0)  -->
<svg version="1.1" id="Layer_1" xmlns="http://www.w3.org/2000/svg" xmlns:xlink="http://www.w3.org/1999/xlink" x="0px" y="0px"
	 viewBox="0 0 70 20" style="enable-background:new 0 0 70 20;" xml:space="preserve">
<style type="text/css">
	.st0{fill-rule:evenodd;clip-rule:evenodd;fill:#FFFFFF;}
	.st1{fill:#6F767B;}
	.st2{fill:url(#SVGID_1_);}
	.st3{fill:url(#SVGID_2_);}
	.st4{fill:url(#SVGID_3_);}
	.st5{fill:url(#SVGID_4_);}
	.st6{fill:url(#SVGID_5_);}
	.st7{fill:url(#SVGID_6_);}
	.st8{fill:#FFFBC8;}
	.st9{fill:url(#SVGID_7_);}
	.st10{opacity:0.8;}
	.st11{fill:url(#SVGID_8_);}
	.st12{fill:url(#SVGID_9_);}
	.st13{opacity:0.9;}
	.st14{fill:url(#SVGID_10_);}
	.st15{fill:url(#SVGID_11_);}
	.st16{fill:url(#SVGID_12_);}
	.st17{fill:url(#SVGID_13_);}
	.st18{fill:none;}
	.st19{clip-path:url(#SVGID_15_);}
	.st20{fill:url(#SVGID_16_);}
	.st21{fill:url(#SVGID_17_);}
	.st22{filter:url(#Adobe_OpacityMaskFilter);}
	.st23{fill:url(#SVGID_19_);}
	.st24{mask:url(#SVGID_18_);fill:url(#SVGID_20_);}
	.st25{filter:url(#Adobe_OpacityMaskFilter_1_);}
	.st26{fill:url(#SVGID_22_);}
	.st27{mask:url(#SVGID_21_);fill:url(#SVGID_23_);}
	.st28{filter:url(#Adobe_OpacityMaskFilter_2_);}
	.st29{fill:url(#SVGID_25_);}
	.st30{opacity:0.62;mask:url(#SVGID_24_);}
	.st31{fill:url(#SVGID_26_);}
	.st32{filter:url(#Adobe_OpacityMaskFilter_3_);}
	.st33{fill:url(#SVGID_28_);}
	.st34{opacity:0.37;mask:url(#SVGID_27_);}
	.st35{fill:url(#SVGID_29_);}
	.st36{filter:url(#Adobe_OpacityMaskFilter_4_);}
	.st37{fill:url(#SVGID_31_);}
	.st38{opacity:0.45;mask:url(#SVGID_30_);fill:url(#SVGID_32_);}
	.st39{filter:url(#Adobe_OpacityMaskFilter_5_);}
	.st40{fill:url(#SVGID_34_);}
	.st41{opacity:0.5;mask:url(#SVGID_33_);}
	.st42{fill:url(#SVGID_35_);}
	.st43{filter:url(#Adobe_OpacityMaskFilter_6_);}
	.st44{fill:url(#SVGID_37_);}
	.st45{opacity:0.75;mask:url(#SVGID_36_);fill:url(#SVGID_38_);}
	.st46{filter:url(#Adobe_OpacityMaskFilter_7_);}
	.st47{fill:url(#SVGID_40_);}
	.st48{opacity:0.65;mask:url(#SVGID_39_);fill:url(#SVGID_41_);}
	.st49{filter:url(#Adobe_OpacityMaskFilter_8_);}
	.st50{fill:url(#SVGID_43_);}
	.st51{opacity:0.37;mask:url(#SVGID_42_);fill:url(#SVGID_44_);}
	.st52{fill:url(#SVGID_45_);}
	.st53{fill:#ED1A77;}
	.st54{fill:#00799E;}
	.st55{fill:#23BBB8;}
	.st56{fill:#0092D0;}
	.st57{fill:#F9A51A;}
	.st58{fill:#FFCB31;}
	.st59{fill-rule:evenodd;clip-rule:evenodd;fill:#0071BB;}
	.st60{fill-rule:evenodd;clip-rule:evenodd;fill:#00ADEE;}
	.st61{fill-rule:evenodd;clip-rule:evenodd;fill:#2E3191;}
	.st62{fill-rule:evenodd;clip-rule:evenodd;fill:#F6921E;}
	.st63{fill-rule:evenodd;clip-rule:evenodd;fill:#FFF100;}
	.st64{fill-rule:evenodd;clip-rule:evenodd;fill:#EC1C24;}
	.st65{fill-rule:evenodd;clip-rule:evenodd;fill:#231F20;}
	.st66{fill:#5BCBF5;}
	.st67{fill:#DA2128;}
	.st68{fill:#8D1417;}
	.st69{fill:#FAAB41;}
	.st70{fill:#231F20;}
	.st71{fill:#FFFFFF;}
	.st72{fill:none;stroke:#BE7C68;stroke-width:0.5;stroke-miterlimit:10;}
</style>
<rect x="3" y="1.5" class="st0" width="64" height="17"/>
<rect x="0" class="st68" width="70" height="20"/>
<g>
	<polygon class="st69" points="61.3,3.4 62,2.2 62.7,3.4 	"/>
	<polygon class="st69" points="60,3.4 60.7,2.2 61.3,3.4 	"/>
	<polygon class="st69" points="58.7,3.4 59.4,2.2 60,3.4 	"/>
	<polygon class="st69" points="57.3,3.4 58,2.2 58.7,3.4 	"/>
	<polygon class="st69" points="56,3.4 56.7,2.2 57.3,3.4 	"/>
	<polygon class="st69" points="54.7,3.4 55.3,2.2 56,3.4 	"/>
	<polygon class="st69" points="53.3,3.4 54,2.2 54.7,3.4 	"/>
	<polygon class="st69" points="52,3.4 52.7,2.2 53.3,3.4 	"/>
	<polygon class="st69" points="50.6,3.4 51.3,2.2 52,3.4 	"/>
	<polygon class="st69" points="49.3,3.4 50,2.2 50.6,3.4 	"/>
	<polygon class="st69" points="48,3.4 48.6,2.2 49.3,3.4 	"/>
	<polygon class="st69" points="46.6,3.4 47.3,2.2 48,3.4 	"/>
	<polygon class="st69" points="45.3,3.4 46,2.2 46.6,3.4 	"/>
	<polygon class="st69" points="44,3.4 44.6,2.2 45.3,3.4 	"/>
	<polygon class="st69" points="42.6,3.4 43.3,2.2 44,3.4 	"/>
	<polygon class="st69" points="41.3,3.4 42,2.2 42.6,3.4 	"/>
	<polygon class="st69" points="39.9,3.4 40.6,2.2 41.3,3.4 	"/>
	<polygon class="st69" points="38.6,3.4 39.3,2.2 39.9,3.4 	"/>
	<polygon class="st69" points="37.3,3.4 37.9,2.2 38.6,3.4 	"/>
	<polygon class="st69" points="35.9,3.4 36.6,2.2 37.3,3.4 	"/>
	<polygon class="st69" points="34.6,3.4 35.3,2.2 35.9,3.4 	"/>
	<polygon class="st69" points="33.3,3.4 33.9,2.2 34.6,3.4 	"/>
	<polygon class="st69" points="31.9,3.4 32.6,2.2 33.3,3.4 	"/>
	<polygon class="st69" points="30.6,3.4 31.3,2.2 31.9,3.4 	"/>
	<polygon class="st69" points="29.2,3.4 29.9,2.2 30.6,3.4 	"/>
	<polygon class="st69" points="27.9,3.4 28.6,2.2 29.2,3.4 	"/>
	<polygon class="st69" points="26.6,3.4 27.2,2.2 27.9,3.4 	"/>
	<polygon class="st69" points="25.2,3.4 25.9,2.2 26.6,3.4 	"/>
	<polygon class="st69" points="23.9,3.4 24.6,2.2 25.2,3.4 	"/>
	<polygon class="st69" points="22.6,3.4 23.2,2.2 23.9,3.4 	"/>
	<polygon class="st69" points="21.2,3.4 21.9,2.2 22.6,3.4 	"/>
	<polygon class="st69" points="19.9,3.4 20.6,2.2 21.2,3.4 	"/>
	<polygon class="st69" points="18.5,3.4 19.2,2.2 19.9,3.4 	"/>
	<polygon class="st69" points="17.2,3.4 17.9,2.2 18.5,3.4 	"/>
	<polygon class="st69" points="15.9,3.4 16.5,2.2 17.2,3.4 	"/>
	<polygon class="st69" points="14.5,3.4 15.2,2.2 15.9,3.4 	"/>
	<polygon class="st69" points="13.2,3.4 13.9,2.2 14.5,3.4 	"/>
	<polygon class="st69" points="11.8,3.4 12.5,2.2 13.2,3.4 	"/>
	<polygon class="st69" points="10.5,3.4 11.2,2.2 11.8,3.4 	"/>
	<polygon class="st69" points="9.2,3.4 9.9,2.2 10.5,3.4 	"/>
	<polygon class="st69" points="7.8,3.4 8.5,2.2 9.2,3.4 	"/>
	<g>
		<polygon class="st69" points="7.8,16.7 6.7,16 7.8,15.4 		"/>
		<polygon class="st69" points="7.8,15.4 6.7,14.7 7.8,14 		"/>
		<polygon class="st69" points="7.8,14 6.7,13.4 7.8,12.7 		"/>
		<polygon class="st69" points="7.8,12.7 6.7,12 7.8,11.4 		"/>
		<polygon class="st69" points="7.8,11.4 6.7,10.7 7.8,10 		"/>
		<polygon class="st69" points="7.8,10 6.7,9.4 7.8,8.7 		"/>
		<polygon class="st69" points="7.8,8.7 6.7,8 7.8,7.4 		"/>
		<polygon class="st69" points="7.8,7.4 6.7,6.7 7.8,6 		"/>
		<polygon class="st69" points="7.8,6 6.7,5.3 7.8,4.7 		"/>
		<polygon class="st69" points="7.8,4.7 6.7,4 7.8,3.4 		"/>
	</g>
	<polygon class="st69" points="62.7,16.7 63.8,16 62.7,15.4 	"/>
	<polygon class="st69" points="62.7,15.4 63.8,14.7 62.7,14 	"/>
	<polygon class="st69" points="62.7,14 63.8,13.4 62.7,12.7 	"/>
	<polygon class="st69" points="62.7,12.7 63.8,12 62.7,11.4 	"/>
	<polygon class="st69" points="62.7,11.4 63.8,10.7 62.7,10 	"/>
	<polygon class="st69" points="62.7,10 63.8,9.4 62.7,8.7 	"/>
	<polygon class="st69" points="62.7,8.7 63.8,8 62.7,7.4 	"/>
	<polygon class="st69" points="62.7,7.4 63.8,6.7 62.7,6 	"/>
	<polygon class="st69" points="62.7,6 63.8,5.3 62.7,4.7 	"/>
	<polygon class="st69" points="62.7,4.7 63.8,4 62.7,3.4 	"/>
	<polygon class="st70" points="34.1,6.6 33.8,6.6 33.8,7.3 33.5,7.3 33.5,6.6 33.2,6.6 33.2,6.4 34.1,6.4 	"/>
	<polygon class="st70" points="35.4,7.3 35.1,7.3 35.1,6.9 34.8,6.9 34.8,7.3 34.5,7.3 34.5,6.4 34.8,6.4 34.8,6.7 35.1,6.7 
		35.1,6.4 35.4,6.4 	"/>
	<polygon class="st70" points="36.5,7.3 35.9,7.3 35.9,6.4 36.5,6.4 36.5,6.6 36.1,6.6 36.1,6.7 36.5,6.7 36.5,6.9 36.1,6.9 
		36.1,7.1 36.5,7.1 	"/>
	<polygon class="st71" points="34,6.5 33.7,6.5 33.7,7.2 33.4,7.2 33.4,6.5 33.1,6.5 33.1,6.3 34,6.3 	"/>
	<polygon class="st71" points="35.3,7.2 35.1,7.2 35.1,6.8 34.7,6.8 34.7,7.2 34.4,7.2 34.4,6.3 34.7,6.3 34.7,6.6 35.1,6.6 
		35.1,6.3 35.3,6.3 	"/>
	<polygon class="st71" points="36.4,7.2 35.8,7.2 35.8,6.3 36.4,6.3 36.4,6.5 36.1,6.5 36.1,6.6 36.4,6.6 36.4,6.8 36.1,6.8 36.1,7 
		36.4,7 	"/>
	<polygon class="st70" points="33.9,14.4 33.3,14.4 33.3,13.5 33.9,13.5 33.9,13.7 33.6,13.7 33.6,13.9 33.9,13.9 33.9,14 33.6,14 
		33.6,14.2 33.9,14.2 	"/>
	<path class="st70" d="M35.3,14.4H35l-0.1-0.1c0,0,0,0-0.1-0.1c0,0-0.1-0.1-0.1-0.1c0,0.1-0.1,0.1-0.1,0.2l-0.1,0.1h-0.3l0.3-0.5
		l-0.3-0.4h0.3l0.1,0.1c0,0,0.1,0.1,0.1,0.2c0-0.1,0.1-0.1,0.1-0.2l0.1-0.1h0.3L35,13.9L35.3,14.4z"/>
	<path class="st70" d="M36.4,13.8C36.4,13.8,36.4,13.9,36.4,13.8c0,0.1,0,0.2-0.1,0.2c0,0-0.1,0-0.1,0.1c0,0-0.1,0-0.1,0H36v0.3
		h-0.2v-0.9h0.4c0.1,0,0.1,0,0.1,0c0,0,0.1,0,0.1,0.1C36.4,13.6,36.4,13.7,36.4,13.8C36.4,13.7,36.4,13.8,36.4,13.8 M36.2,13.8
		C36.2,13.8,36.2,13.7,36.2,13.8c-0.1-0.1-0.1-0.1-0.2-0.1H36v0.2H36C36.1,13.9,36.1,13.9,36.2,13.8C36.1,13.9,36.2,13.9,36.2,13.8
		C36.2,13.8,36.2,13.8,36.2,13.8"/>
	<polygon class="st70" points="37.5,14.4 36.9,14.4 36.9,13.5 37.5,13.5 37.5,13.7 37.1,13.7 37.1,13.9 37.5,13.9 37.5,14 37.1,14 
		37.1,14.2 37.5,14.2 	"/>
	<path class="st70" d="M38.7,14.4h-0.3l-0.1-0.2c0-0.1,0-0.1-0.1-0.1c0,0,0,0-0.1-0.1c0,0,0,0-0.1,0h0v0.4h-0.2v-0.9h0.4
		c0.1,0,0.1,0,0.2,0c0,0,0.1,0.1,0.1,0.1c0,0,0,0.1,0,0.1c0,0,0,0.1,0,0.1c0,0,0,0.1-0.1,0.1c0,0,0,0-0.1,0c0,0,0,0,0.1,0.1
		c0,0,0,0.1,0.1,0.1L38.7,14.4z M38.4,13.8C38.4,13.8,38.4,13.7,38.4,13.8c-0.1-0.1-0.1-0.1-0.2-0.1h-0.1v0.2h0.1
		C38.3,13.9,38.3,13.9,38.4,13.8C38.4,13.9,38.4,13.8,38.4,13.8"/>
	<rect x="39.1" y="13.5" class="st70" width="0.2" height="0.9"/>
	<polygon class="st70" points="40.5,14.4 39.9,14.4 39.9,13.5 40.5,13.5 40.5,13.7 40.1,13.7 40.1,13.9 40.5,13.9 40.5,14 40.1,14 
		40.1,14.2 40.5,14.2 	"/>
	<polygon class="st70" points="41.9,14.4 41.6,14.4 41.2,13.9 41.2,14.4 41,14.4 41,13.5 41.2,13.5 41.6,14 41.6,13.5 41.9,13.5 	
		"/>
	<path class="st70" d="M43.1,14.3c0,0-0.1,0-0.1,0c0,0-0.1,0-0.1,0c0,0-0.1,0-0.1,0c-0.1,0-0.1,0-0.2,0c-0.1,0-0.1-0.1-0.1-0.1
		c0,0-0.1-0.1-0.1-0.1c0-0.1,0-0.1,0-0.2c0-0.1,0-0.1,0-0.2c0-0.1,0.1-0.1,0.1-0.1c0,0,0.1-0.1,0.2-0.1c0.1,0,0.1,0,0.2,0
		c0.1,0,0.2,0,0.3,0.1v0.2c0,0-0.1-0.1-0.1-0.1c0,0-0.1,0-0.1,0c0,0-0.1,0-0.1,0c0,0-0.1,0.1-0.1,0.1c0,0,0,0.1,0,0.1
		c0,0,0,0.1,0,0.1c0,0,0.1,0.1,0.1,0.1c0,0,0.1,0,0.1,0c0,0,0.1,0,0.1,0c0,0,0.1,0,0.1,0c0,0,0,0,0.1,0V14.3z"/>
	<polygon class="st70" points="44.2,14.4 43.6,14.4 43.6,13.5 44.2,13.5 44.2,13.7 43.8,13.7 43.8,13.9 44.2,13.9 44.2,14 43.8,14 
		43.8,14.2 44.2,14.2 	"/>
	<polygon class="st71" points="33.8,14.3 33.2,14.3 33.2,13.4 33.8,13.4 33.8,13.6 33.5,13.6 33.5,13.8 33.8,13.8 33.8,13.9 
		33.5,13.9 33.5,14.1 33.8,14.1 	"/>
	<path class="st71" d="M35.2,14.3h-0.3l-0.1-0.1c0,0,0,0-0.1-0.1c0,0-0.1-0.1-0.1-0.1c0,0.1-0.1,0.1-0.1,0.2l-0.1,0.1h-0.3l0.3-0.5
		l-0.3-0.4h0.3l0.1,0.1c0,0,0.1,0.1,0.1,0.2c0-0.1,0.1-0.1,0.1-0.2l0.1-0.1h0.3l-0.3,0.4L35.2,14.3z"/>
	<path class="st71" d="M36.3,13.7C36.3,13.7,36.3,13.8,36.3,13.7c0,0.1,0,0.2-0.1,0.2c0,0-0.1,0.1-0.1,0.1c0,0-0.1,0-0.1,0h-0.2v0.3
		h-0.2v-0.9H36c0.1,0,0.1,0,0.1,0c0,0,0.1,0,0.1,0.1C36.3,13.5,36.3,13.6,36.3,13.7C36.3,13.6,36.3,13.7,36.3,13.7 M36.1,13.7
		C36.1,13.7,36.1,13.6,36.1,13.7c-0.1-0.1-0.1-0.1-0.2-0.1h-0.1v0.2h0.1C36,13.8,36,13.8,36.1,13.7C36,13.8,36.1,13.8,36.1,13.7
		C36.1,13.8,36.1,13.7,36.1,13.7"/>
	<polygon class="st71" points="37.4,14.3 36.8,14.3 36.8,13.4 37.4,13.4 37.4,13.6 37,13.6 37,13.8 37.4,13.8 37.4,13.9 37,13.9 
		37,14.1 37.4,14.1 	"/>
	<path class="st71" d="M38.6,14.3h-0.3l-0.1-0.2c0-0.1,0-0.1-0.1-0.1c0,0,0,0-0.1-0.1c0,0,0,0-0.1,0h0v0.4h-0.2v-0.9h0.4
		c0.1,0,0.1,0,0.2,0c0,0,0.1,0.1,0.1,0.1c0,0,0,0.1,0,0.1c0,0,0,0.1,0,0.1c0,0,0,0.1-0.1,0.1c0,0,0,0-0.1,0c0,0,0,0,0.1,0.1
		c0,0,0,0.1,0.1,0.1L38.6,14.3z M38.3,13.7C38.3,13.7,38.3,13.6,38.3,13.7c-0.1-0.1-0.1-0.1-0.2-0.1h-0.1v0.2h0.1
		C38.2,13.8,38.2,13.8,38.3,13.7C38.3,13.8,38.3,13.7,38.3,13.7"/>
	<rect x="39" y="13.4" class="st71" width="0.2" height="0.9"/>
	<polygon class="st71" points="40.4,14.3 39.8,14.3 39.8,13.4 40.4,13.4 40.4,13.6 40,13.6 40,13.8 40.4,13.8 40.4,13.9 40,13.9 
		40,14.1 40.4,14.1 	"/>
	<polygon class="st71" points="41.8,14.3 41.5,14.3 41.1,13.8 41.1,14.3 40.9,14.3 40.9,13.4 41.1,13.4 41.5,13.9 41.5,13.4 
		41.8,13.4 	"/>
	<path class="st71" d="M43,14.3c0,0-0.1,0-0.1,0c0,0-0.1,0-0.1,0c0,0-0.1,0-0.1,0c-0.1,0-0.1,0-0.2,0c-0.1,0-0.1-0.1-0.1-0.1
		c0,0-0.1-0.1-0.1-0.1c0-0.1,0-0.1,0-0.2c0-0.1,0-0.1,0-0.2c0-0.1,0.1-0.1,0.1-0.1c0,0,0.1-0.1,0.2-0.1c0.1,0,0.1,0,0.2,0
		c0.1,0,0.2,0,0.3,0.1v0.2c0,0-0.1-0.1-0.1-0.1c0,0-0.1,0-0.1,0c0,0-0.1,0-0.1,0c0,0-0.1,0.1-0.1,0.1c0,0,0,0.1,0,0.1
		c0,0,0,0.1,0,0.1c0,0,0.1,0.1,0.1,0.1c0,0,0.1,0,0.1,0c0,0,0.1,0,0.1,0c0,0,0.1,0,0.1,0c0,0,0,0,0.1,0V14.3z"/>
	<polygon class="st71" points="44.1,14.3 43.5,14.3 43.5,13.4 44.1,13.4 44.1,13.6 43.7,13.6 43.7,13.8 44.1,13.8 44.1,13.9 
		43.7,13.9 43.7,14.1 44.1,14.1 	"/>
	<path class="st65" d="M26.4,14.3l-0.5,0.8c0.3,0.1,0.6,0.1,0.9,0.1c0.9,0,1.7-0.4,2.5-1.4c0.7-0.8,0.8-1.7,1.1-2.9l0.3-1.4l0.8-0.5
		c-0.9,0-1.7,0-2.6-0.1c-0.2,0.2-0.5,0.3-0.8,0.5c0.5,0,1,0,1.4,0h0.3l-0.4,1.6c-0.6,0.6-1.2,0.8-1.7,0.8c-0.7,0-1.3-0.7-1.3-1.8
		c0-1.1,0.4-2.4,1.1-3.3c0.6-0.8,1.4-1.2,2-1.2c0.8,0,1.2,0.5,1.4,1.5l1-1c-0.2-0.6-0.8-1-1.6-1c-1.1,0-2.4,0.5-3.2,1.4
		c-1,1-1.7,2.7-1.7,4c0,1.2,0.7,1.9,1.8,1.9c0.6,0,1.3-0.2,2.2-0.7L29,12.5c-0.3,1.3-0.5,1.9-1.5,1.9C27.3,14.4,26.9,14.3,26.4,14.3
		"/>
	<path class="st65" d="M32.3,10.9c-0.4,0.3-0.6,0.5-0.7,0.5c-0.1,0-0.2-0.1-0.2-0.3c0-0.3,0.1-1,0.3-1.4c0.1-0.3,0.2-0.4,0.5-0.4
		c0.1,0,0.3,0,0.5,0.1C32.6,9.8,32.4,10.4,32.3,10.9 M32.2,11.3c0,0.2-0.1,0.3-0.1,0.5c0,0,0,0.1,0,0.2c0,0.1,0.1,0.1,0.1,0.1
		c0.4-0.3,0.8-0.5,1.2-0.8V11c-0.4,0.3-0.6,0.4-0.7,0.4c-0.1,0-0.1,0-0.1-0.1c0-0.1,0-0.2,0.1-0.3l0.4-1.6L33.4,9
		c-0.3-0.1-0.6-0.2-0.9-0.2h-0.1c-0.6,0.2-0.9,0.6-1.1,0.8c-0.2,0.5-0.4,1.3-0.4,1.8c0,0.2,0,0.4,0.2,0.5l0.2,0
		C31.6,11.7,31.9,11.5,32.2,11.3"/>
	<path class="st65" d="M33.6,12l0.5-0.2l0.5-1.8l0.1-0.1c0.3-0.2,0.7-0.4,0.7-0.4c0.1,0,0.1,0,0.1,0.1c0,0.1,0,0.2,0,0.2L34.9,12
		l0.5-0.2l0.5-1.9l0.1-0.1c0.4-0.3,0.7-0.4,0.7-0.4c0.1,0,0.1,0,0.1,0.1v0.2c0,0,0,0.1,0,0.2l-0.3,1.3c0,0.1-0.1,0.2-0.1,0.3
		c0,0.1,0,0.2,0.1,0.3l0.1,0c0.2-0.1,0.4-0.2,0.6-0.4l0.6-0.4V11l-0.3,0.2c-0.2,0.1-0.3,0.2-0.4,0.2c-0.1,0-0.1,0-0.1-0.1
		c0,0,0-0.2,0.1-0.6l0.4-1.5c0,0,0-0.1,0-0.2c0-0.1,0-0.1-0.1-0.1c-0.1,0-0.4,0.2-0.9,0.5L36,9.6l0.1-0.5c0,0,0-0.1,0-0.2
		c0-0.1,0-0.1-0.1-0.1c-0.1,0-0.5,0.2-1,0.6l-0.3,0.2l0.1-0.6c0,0,0-0.1,0-0.1c0-0.1-0.1-0.1-0.1-0.1c-0.1,0-0.3,0.2-0.7,0.4
		l-0.3,0.2l0,0.2l0.3-0.1c0.1,0,0.1-0.1,0.2-0.1c0.1,0,0.1,0,0.1,0.1c0,0.1,0,0.2,0,0.2L33.6,12z"/>
	<path class="st65" d="M38.5,11.3c0-0.2,0.2-0.7,0.3-1.5c0.4-0.3,0.7-0.4,0.8-0.4c0.1,0,0.2,0.1,0.2,0.3c0,0.2-0.1,0.5-0.1,0.8
		c-0.1,0.3-0.1,0.4-0.2,0.6c-0.1,0.3-0.4,0.4-0.6,0.4C38.7,11.5,38.5,11.5,38.5,11.3 M37.9,12l0.1,0l0.2-0.2
		c0.1,0.1,0.3,0.1,0.4,0.1c0.4,0,0.6-0.2,1-0.5c0.4-0.4,0.7-1.2,0.7-1.9c0-0.4-0.1-0.6-0.4-0.6c-0.3,0-0.6,0.2-1,0.6l0.2-0.9
		c0.2-0.8,0.3-1.2,0.8-1.2c0.1,0,0.2,0,0.3,0c0.1-0.2,0.2-0.3,0.3-0.4c-0.1,0-0.2-0.1-0.3-0.1c-0.1,0-0.2,0-0.3,0
		c-0.5,0.4-0.8,0.7-1,1c-0.1,0.2-0.2,0.6-0.4,1.3L38.3,10C38.2,10.4,38.1,11.1,37.9,12"/>
	<path class="st65" d="M40.6,9.4l0,0.2c0.3-0.1,0.5-0.2,0.5-0.2c0,0,0.1,0,0.1,0.1c0,0,0,0.1,0,0.2l-0.4,1.4c0,0.1,0,0.3,0,0.3
		c0,0.1,0,0.2,0,0.4c0,0,0,0.1,0.1,0.1c0.3,0,0.7-0.3,1.2-0.6v-0.2c-0.3,0.2-0.5,0.3-0.7,0.3c-0.1,0-0.1-0.1-0.1-0.2
		c0-0.2,0.1-0.4,0.1-0.7l0.3-1.1c0-0.2,0.1-0.4,0.1-0.5l-0.1-0.1C41.4,8.9,41.1,9.1,40.6,9.4 M41.6,8.4c0.1-0.1,0.3-0.2,0.5-0.4
		c-0.1-0.2-0.2-0.3-0.2-0.5c-0.2,0.1-0.3,0.2-0.5,0.4C41.4,8.1,41.5,8.2,41.6,8.4"/>
	<path class="st65" d="M43.6,10.9c-0.4,0.3-0.6,0.5-0.7,0.5c-0.1,0-0.2-0.1-0.2-0.3c0-0.3,0.1-1,0.3-1.4c0.1-0.3,0.2-0.4,0.5-0.4
		c0.1,0,0.3,0,0.5,0.1C43.9,9.8,43.8,10.4,43.6,10.9 M43.6,11.3c0,0.2-0.1,0.3-0.1,0.5c0,0,0,0.1,0,0.2c0,0.1,0.1,0.1,0.1,0.1
		c0.4-0.3,0.8-0.5,1.2-0.8V11c-0.4,0.3-0.6,0.4-0.7,0.4c-0.1,0-0.1,0-0.1-0.1c0-0.1,0-0.2,0.1-0.3l0.4-1.6L44.7,9
		c-0.3-0.1-0.6-0.2-0.9-0.2h-0.1c-0.6,0.2-0.9,0.6-1.1,0.8c-0.2,0.5-0.4,1.3-0.4,1.8c0,0.2,0,0.4,0.2,0.5l0.2,0
		C42.9,11.7,43.2,11.5,43.6,11.3"/>
	<path class="st0" d="M26.2,14.2L25.7,15c0.3,0.1,0.6,0.1,0.9,0.1c0.9,0,1.7-0.4,2.5-1.4c0.7-0.8,0.8-1.7,1.1-2.9l0.3-1.4l0.8-0.5
		c-0.9,0-1.7,0-2.6-0.1c-0.2,0.2-0.5,0.3-0.8,0.5c0.5,0,1,0,1.4,0h0.3l-0.4,1.7c-0.6,0.6-1.2,0.8-1.7,0.8c-0.7,0-1.3-0.7-1.3-1.8
		c0-1.1,0.4-2.4,1.1-3.3c0.6-0.8,1.4-1.2,2-1.2c0.8,0,1.2,0.5,1.4,1.5l1-1c-0.2-0.6-0.8-1-1.6-1c-1.1,0-2.4,0.5-3.2,1.4
		c-1,1-1.7,2.7-1.7,4c0,1.2,0.7,1.9,1.8,1.9c0.6,0,1.3-0.2,2.2-0.7l-0.2,0.7c-0.3,1.3-0.5,1.9-1.5,1.9
		C27.2,14.2,26.8,14.2,26.2,14.2"/>
	<path class="st0" d="M32.1,10.8c-0.4,0.3-0.6,0.5-0.7,0.5c-0.1,0-0.2-0.1-0.2-0.3c0-0.3,0.1-1,0.3-1.4c0.1-0.3,0.2-0.4,0.5-0.4
		c0.1,0,0.3,0,0.5,0.1C32.4,9.7,32.3,10.2,32.1,10.8 M32.1,11.1c0,0.2-0.1,0.3-0.1,0.5c0,0,0,0.1,0,0.2c0,0.1,0.1,0.1,0.1,0.1
		c0.4-0.3,0.8-0.5,1.2-0.8v-0.2c-0.4,0.2-0.6,0.4-0.7,0.4c-0.1,0-0.1,0-0.1-0.1c0-0.1,0-0.2,0.1-0.3L33,9.2l0.2-0.3
		c-0.3-0.1-0.6-0.2-0.9-0.2h-0.1c-0.6,0.2-0.9,0.6-1.1,0.8c-0.2,0.5-0.4,1.3-0.4,1.8c0,0.2,0,0.4,0.2,0.5l0.2,0
		C31.4,11.6,31.7,11.4,32.1,11.1"/>
	<path class="st0" d="M33.4,11.9l0.5-0.2l0.5-1.8l0.1-0.1c0.3-0.2,0.7-0.4,0.7-0.4c0.1,0,0.1,0,0.1,0.1c0,0.1,0,0.2,0,0.2l-0.6,2.2
		l0.5-0.2l0.5-1.9l0.1-0.1c0.4-0.3,0.7-0.4,0.7-0.4c0.1,0,0.1,0,0.1,0.1v0.2c0,0,0,0.1,0,0.2l-0.3,1.3c0,0.1-0.1,0.2-0.1,0.3
		c0,0.1,0,0.2,0.1,0.3l0.1,0c0.2-0.1,0.4-0.2,0.6-0.4l0.6-0.4v-0.2l-0.3,0.2c-0.2,0.1-0.3,0.2-0.4,0.2c-0.1,0-0.1,0-0.1-0.1
		c0,0,0-0.2,0.1-0.6l0.4-1.5c0,0,0-0.1,0-0.2c0-0.1,0-0.1-0.1-0.1c-0.1,0-0.4,0.2-0.9,0.5l-0.4,0.3L36,9.1c0,0,0-0.1,0-0.2
		c0-0.1,0-0.1-0.1-0.1c-0.1,0-0.5,0.2-1,0.6l-0.3,0.2l0.1-0.6c0,0,0-0.1,0-0.1c0-0.1-0.1-0.1-0.1-0.1c-0.1,0-0.3,0.2-0.7,0.4
		l-0.3,0.2l0,0.2l0.3-0.1c0.1,0,0.1-0.1,0.2-0.1c0.1,0,0.1,0,0.1,0.1c0,0.1,0,0.2,0,0.2L33.4,11.9z"/>
	<path class="st0" d="M38.3,11.2c0-0.2,0.2-0.7,0.3-1.5c0.4-0.3,0.7-0.4,0.8-0.4c0.1,0,0.2,0.1,0.2,0.3c0,0.2-0.1,0.5-0.1,0.8
		c-0.1,0.3-0.1,0.4-0.2,0.6c-0.1,0.3-0.4,0.4-0.6,0.4C38.5,11.4,38.4,11.3,38.3,11.2 M37.7,11.9l0.1,0l0.2-0.2
		c0.1,0.1,0.3,0.1,0.4,0.1c0.4,0,0.6-0.2,1-0.5c0.4-0.4,0.7-1.2,0.7-1.9c0-0.4-0.1-0.6-0.4-0.6c-0.3,0-0.6,0.2-1,0.6l0.2-0.9
		c0.2-0.8,0.3-1.2,0.8-1.2c0.1,0,0.2,0,0.3,0c0.1-0.2,0.2-0.3,0.3-0.4c-0.1,0-0.2-0.1-0.3-0.1c-0.1,0-0.2,0-0.3,0
		c-0.5,0.4-0.8,0.7-1,1c-0.1,0.2-0.2,0.6-0.4,1.3l-0.1,0.7C38.1,10.2,37.9,10.9,37.7,11.9"/>
	<path class="st0" d="M40.5,9.3l0,0.2c0.3-0.1,0.5-0.2,0.5-0.2c0,0,0.1,0,0.1,0.1c0,0,0,0.1,0,0.2L40.6,11c0,0.1,0,0.3,0,0.3
		c0,0.1,0,0.2,0,0.4c0,0,0,0.1,0.1,0.1c0.3,0,0.7-0.3,1.2-0.6V11c-0.3,0.2-0.5,0.3-0.7,0.3c-0.1,0-0.1-0.1-0.1-0.2
		c0-0.2,0.1-0.4,0.1-0.7l0.3-1.1c0-0.2,0.1-0.4,0.1-0.5l-0.1-0.1C41.3,8.8,40.9,9,40.5,9.3 M41.5,8.2c0.1-0.1,0.3-0.2,0.5-0.4
		c-0.1-0.2-0.2-0.3-0.2-0.5c-0.2,0.1-0.3,0.2-0.5,0.4C41.3,7.9,41.3,8.1,41.5,8.2"/>
	<path class="st0" d="M43.5,10.8c-0.4,0.3-0.6,0.5-0.7,0.5c-0.1,0-0.2-0.1-0.2-0.3c0-0.3,0.1-1,0.3-1.4c0.1-0.3,0.2-0.4,0.5-0.4
		c0.1,0,0.3,0,0.5,0.1C43.7,9.7,43.6,10.2,43.5,10.8 M43.4,11.1c0,0.2-0.1,0.3-0.1,0.5c0,0,0,0.1,0,0.2c0,0.1,0.1,0.1,0.1,0.1
		c0.4-0.3,0.8-0.5,1.2-0.8v-0.2c-0.4,0.2-0.6,0.4-0.7,0.4c-0.1,0-0.1,0-0.1-0.1c0-0.1,0-0.2,0.1-0.3l0.4-1.6l0.2-0.3
		c-0.3-0.1-0.6-0.2-0.9-0.2h-0.1C43,9,42.6,9.3,42.5,9.6c-0.2,0.5-0.4,1.3-0.4,1.8c0,0.2,0,0.4,0.2,0.5l0.2,0
		C42.8,11.6,43.1,11.4,43.4,11.1"/>
	<rect x="8.6" y="4" class="st72" width="53.4" height="12.1"/>
	<polygon class="st69" points="9.2,16.7 8.5,17.8 7.8,16.7 	"/>
	<polygon class="st69" points="10.5,16.7 9.8,17.8 9.2,16.7 	"/>
	<polygon class="st69" points="11.8,16.7 11.2,17.8 10.5,16.7 	"/>
	<polygon class="st69" points="13.2,16.7 12.5,17.8 11.8,16.7 	"/>
	<polygon class="st69" points="14.5,16.7 13.8,17.8 13.2,16.7 	"/>
	<polygon class="st69" points="15.9,16.7 15.2,17.8 14.5,16.7 	"/>
	<polygon class="st69" points="17.2,16.7 16.5,17.8 15.9,16.7 	"/>
	<polygon class="st69" points="18.5,16.7 17.9,17.8 17.2,16.7 	"/>
	<polygon class="st69" points="19.9,16.7 19.2,17.8 18.5,16.7 	"/>
	<polygon class="st69" points="21.2,16.7 20.5,17.8 19.9,16.7 	"/>
	<polygon class="st69" points="22.6,16.7 21.9,17.8 21.2,16.7 	"/>
	<polygon class="st69" points="23.9,16.7 23.2,17.8 22.6,16.7 	"/>
	<polygon class="st69" points="25.2,16.7 24.5,17.8 23.9,16.7 	"/>
	<polygon class="st69" points="26.6,16.7 25.9,17.8 25.2,16.7 	"/>
	<polygon class="st69" points="27.9,16.7 27.2,17.8 26.6,16.7 	"/>
	<polygon class="st69" points="29.2,16.7 28.6,17.8 27.9,16.7 	"/>
	<polygon class="st69" points="30.6,16.7 29.9,17.8 29.2,16.7 	"/>
	<polygon class="st69" points="31.9,16.7 31.2,17.8 30.6,16.7 	"/>
	<polygon class="st69" points="33.3,16.7 32.6,17.8 31.9,16.7 	"/>
	<polygon class="st69" points="34.6,16.7 33.9,17.8 33.3,16.7 	"/>
	<polygon class="st69" points="35.9,16.7 35.2,17.8 34.6,16.7 	"/>
	<polygon class="st69" points="37.3,16.7 36.6,17.8 35.9,16.7 	"/>
	<polygon class="st69" points="38.6,16.7 37.9,17.8 37.3,16.7 	"/>
	<polygon class="st69" points="39.9,16.7 39.3,17.8 38.6,16.7 	"/>
	<polygon class="st69" points="41.3,16.7 40.6,17.8 39.9,16.7 	"/>
	<polygon class="st69" points="42.6,16.7 41.9,17.8 41.3,16.7 	"/>
	<polygon class="st69" points="44,16.7 43.3,17.8 42.6,16.7 	"/>
	<polygon class="st69" points="45.3,16.7 44.6,17.8 44,16.7 	"/>
	<polygon class="st69" points="46.6,16.7 45.9,17.8 45.3,16.7 	"/>
	<polygon class="st69" points="48,16.7 47.3,17.8 46.6,16.7 	"/>
	<polygon class="st69" points="49.3,16.7 48.6,17.8 48,16.7 	"/>
	<polygon class="st69" points="50.6,16.7 50,17.8 49.3,16.7 	"/>
	<polygon class="st69" points="52,16.7 51.3,17.8 50.6,16.7 	"/>
	<polygon class="st69" points="53.3,16.7 52.6,17.8 52,16.7 	"/>
	<polygon class="st69" points="54.7,16.7 54,17.8 53.3,16.7 	"/>
	<polygon class="st69" points="56,16.7 55.3,17.8 54.7,16.7 	"/>
	<polygon class="st69" points="57.3,16.7 56.7,17.8 56,16.7 	"/>
	<polygon class="st69" points="58.7,16.7 58,17.8 57.3,16.7 	"/>
	<polygon class="st69" points="60,16.7 59.3,17.8 58.7,16.7 	"/>
	<polygon class="st69" points="61.3,16.7 60.7,17.8 60,16.7 	"/>
	<polygon class="st69" points="62.7,16.7 62,17.8 61.3,16.7 	"/>
</g>
</svg>
