<?xml version="1.0" encoding="utf-8"?>
<!-- Generator: Adobe Illustrator 22.1.0, SVG Export Plug-In . SVG Version: 6.00 Build 0)  -->
<svg version="1.1" id="Layer_1" xmlns="http://www.w3.org/2000/svg" xmlns:xlink="http://www.w3.org/1999/xlink" x="0px" y="0px"
	 viewBox="0 0 70 20" style="enable-background:new 0 0 70 20;" xml:space="preserve">
<style type="text/css">
	.st0{fill:#FFFFFF;}
	.st1{fill:#23BBB8;}
</style>
<rect x="3" y="1.5" class="st0" width="64" height="17"/>
<rect class="st0" width="70" height="20"/>
<g>
	<g>
		<path class="st1" d="M13.8,3.3h1.9v0.8c0.5-0.7,1.2-1.1,2-1.1c1,0,1.6,0.4,2,1.1C20.3,3.4,21,3,21.8,3c1.5,0,2.4,0.9,2.4,2.5v5.2
			h-1.9V5.9c0-0.7-0.4-1.1-1.1-1.1c-0.8,0-1.2,0.5-1.2,1.4v4.5H18V5.9c0-0.7-0.4-1.1-1.1-1.1c-0.8,0-1.2,0.5-1.2,1.4v4.5h-1.9V3.3z"
			/>
		<path class="st1" d="M30.3,7.1v0.7c0,1.1-0.6,1.7-1.8,1.7c-0.6,0-1-0.4-1-0.9c0-0.5,0.3-0.8,1-1C28.9,7.4,29.5,7.4,30.3,7.1z
			 M30.3,9.7c0,0.4,0.1,0.6,0.3,0.9h2v-0.4c-0.4-0.2-0.4-0.5-0.4-1.1V5.1C32.2,3.8,31,3,29,3c-1.9,0-3,1-3,2.5c0,0,0,0.1,0,0.2h1.9
			V5.6c0-0.6,0.4-0.9,1.2-0.9c0.9,0,1.2,0.3,1.2,0.8c0,0.7-0.5,0.6-2,0.8c-1.8,0.3-2.5,0.9-2.5,2.4s0.8,2.4,2.2,2.4
			C29,11,29.8,10.5,30.3,9.7z"/>
		<path class="st1" d="M33.7,3.3h1.9v0.9c0.5-0.7,1.3-1.1,2.2-1.1c1.6,0,2.5,0.9,2.5,2.6v5h-1.9V6.2c0-1-0.3-1.5-1.1-1.5
			c-0.9,0-1.5,0.6-1.5,1.6v4.4h-1.9L33.7,3.3L33.7,3.3z"/>
		<path class="st1" d="M43.6,7c0-1.5,0.6-2.3,1.8-2.3c1.1,0,1.8,0.8,1.8,2.3s-0.6,2.3-1.8,2.3C44.3,9.3,43.6,8.5,43.6,7z M41.6,7
			c0,2.5,1.4,4,3.8,4c2.3,0,3.8-1.5,3.8-4s-1.4-4-3.8-4C43,3,41.6,4.5,41.6,7z"/>
		<path class="st1" d="M51.8,8.2c0,0.8,0.5,1.1,1.6,1.1c0.8,0,1.2-0.3,1.2-0.7c0-0.6-0.6-0.6-1.9-1c-1.8-0.4-2.6-1-2.6-2.2
			c0-1.5,1.1-2.5,3-2.5c2,0,3.2,1,3.3,2.6h-1.9c0-0.6-0.5-1-1.3-1c-0.8,0-1.1,0.3-1.1,0.7c0,0.5,0.6,0.5,2,0.9
			c1.7,0.4,2.6,0.9,2.6,2.2c0,1.7-1.2,2.6-3.4,2.6c-2,0-3.3-1-3.3-2.6V8.3L51.8,8.2L51.8,8.2z"/>
	</g>
	<g>
		<path class="st1" d="M13.5,15.5c0,0,0-0.1,0-0.2s0-0.1,0.1-0.2c0-0.1,0.1-0.2,0.1-0.2c0-0.1,0.1-0.2,0.1-0.2
			c0.1-0.3,0.2-0.4,0.3-0.6c0.1-0.2,0.1-0.4,0.2-0.4c0-0.1,0.1-0.1,0.1-0.2s0.1-0.2,0.1-0.3s0.1-0.2,0.1-0.3s0.1-0.2,0.1-0.2l0,0
			v-0.1c0-0.1,0-0.1,0-0.2s0-0.1,0.1-0.2c0-0.1,0.1-0.1,0.1-0.1l0,0c0,0,0,0,0.1,0c0,0,0,0,0.1,0c0,0,0,0,0.1,0l0.1,0.1
			c0,0,0,0.1,0.1,0.1v0.1l0,0c0.1,0.2,0.1,0.3,0.2,0.4c0.1,0.1,0.1,0.3,0.2,0.4s0.1,0.2,0.1,0.3s0.1,0.2,0.1,0.3s0.1,0.2,0.1,0.4
			c0,0.1,0.1,0.3,0.2,0.4c0,0,0,0,0,0.1c0,0,0,0,0,0.1c0,0,0,0.1,0.1,0.1c0,0.1,0.1,0.2,0.1,0.3c0.1,0.1,0.1,0.2,0.1,0.3
			c0,0.1,0.1,0.2,0.1,0.3v0.1c-0.1,0-0.1,0-0.2,0s-0.1,0-0.1,0H16c-0.1,0-0.1,0-0.2,0v-0.1l0,0c0-0.1,0-0.1-0.1-0.2
			c0-0.1,0-0.1,0-0.1l0,0c0,0,0,0,0-0.1c-0.1-0.2-0.2-0.4-0.3-0.5c-0.1-0.2-0.2-0.3-0.2-0.4h-0.1h-0.1c0,0,0,0-0.1,0H15h-0.1
			c0,0,0,0-0.1,0s-0.1,0-0.2,0c-0.1,0-0.1,0-0.2,0h-0.1c-0.1,0.4-0.2,0.6-0.3,0.8c-0.1,0.3-0.2,0.4-0.2,0.6
			c-0.1,0.1-0.1,0.1-0.2,0.1h-0.1C13.5,15.7,13.5,15.6,13.5,15.5z M15,13.4C15,13.3,15,13.3,15,13.4c-0.1,0-0.1,0.1-0.2,0.2
			c-0.1,0.1-0.1,0.2-0.1,0.4l0,0h0.1h0.1H15H15c0,0,0-0.1-0.1-0.1c0-0.1,0-0.1-0.1-0.2C15,13.4,15,13.4,15,13.4z"/>
		<path class="st1" d="M16.4,13.9L16.4,13.9c0-0.1,0-0.1,0-0.2c0,0,0,0,0-0.1c0.1-0.1,0.2-0.1,0.3-0.1h0.1c0,0,0,0,0.1,0.1l0,0l0,0
			c0,0,0,0,0.1,0v0.9c0,0.2,0,0.3,0,0.4c0,0.1,0,0.2,0,0.3c0,0.1,0,0.1,0.1,0.1l0.1,0.1l0,0c0,0,0,0,0.1,0h0.1h0.1c0,0,0,0,0.1,0
			c0.3,0,0.4-0.3,0.4-0.8c0-0.1,0-0.2,0-0.3c0-0.1,0-0.2,0-0.3s0-0.2,0-0.2c0-0.1,0-0.1,0.1-0.2c0-0.1,0.1-0.1,0.1-0.1l0.1-0.1
			c0.1,0,0.2,0.1,0.3,0.2c0,0.1-0.1,0.2-0.1,0.3c0,0,0,0.1,0,0.3c0,0.1,0,0.3,0,0.4c0,0.1,0,0.2,0,0.3c0,0.1,0,0.2-0.1,0.3
			c0,0.1-0.1,0.2-0.1,0.3S18,15.6,18,15.6c0,0.1-0.1,0.1-0.1,0.1c-0.1,0-0.1,0.1-0.2,0.1s-0.1,0-0.2,0c-0.1,0-0.1,0-0.2,0
			c-0.1,0-0.2,0-0.3-0.1c-0.1,0-0.2-0.1-0.3-0.2c-0.1-0.1-0.2-0.2-0.3-0.3c-0.2,0.1-0.2,0-0.2-0.2c0-0.1,0-0.2,0-0.2
			c0-0.1,0-0.1,0-0.2c0-0.1,0-0.2,0-0.3c0-0.1,0-0.1,0-0.2s0-0.1,0-0.2C16.4,14.1,16.4,14,16.4,13.9L16.4,13.9z"/>
		<path class="st1" d="M19.7,12.9C19.7,12.9,19.8,12.9,19.7,12.9L19.7,12.9c0.1,0,0.1-0.1,0.2-0.1c0.1,0,0.1,0.1,0.1,0.2l0,0
			c0,0.1,0,0.1,0,0.2s0,0.1-0.1,0.1c0,0-0.1,0-0.2,0h-0.1c0,0-0.1,0-0.1,0.1c0,0-0.1,0-0.1,0.1h-0.1l0,0l0,0l0,0l0,0
			c0,0.1,0,0.2,0,0.3c0,0.1,0,0.2,0,0.3c0,0.2,0,0.4,0,0.5s0,0.4-0.1,0.6c0.1,0.1,0.1,0.2,0.1,0.4c0,0.1,0,0.2-0.1,0.2
			c0,0-0.1,0.1-0.2,0.1c0,0,0,0-0.1,0h-0.1h-0.1c-0.1,0-0.1,0-0.2,0l-0.1-0.1c0,0,0,0,0-0.1c0.1-0.2,0.1-0.4,0.1-0.6
			c0-0.3,0-0.5,0-0.8c0,0,0-0.1,0-0.2c0-0.1,0-0.2,0-0.3l0,0c0,0,0,0,0,0.1l0,0l0,0l0,0l0,0l0,0l0,0l0,0l0,0l0,0l0,0l0,0l0,0l0,0
			h-0.1c0,0,0,0-0.1,0s-0.1,0-0.1,0v-0.1c0,0,0-0.1,0-0.2c0-0.1,0-0.2-0.1-0.3h0.1c0.1,0,0.1,0,0.2,0s0.1,0,0.2-0.1
			c0.1,0,0.1,0,0.1-0.1l0,0l0,0l0,0c0-0.1,0-0.2,0-0.3c0-0.1,0-0.2,0-0.2v-0.2l0,0l0,0v-0.1v-0.1c0,0,0-0.1,0.1-0.1H19
			c0.1,0,0.2,0.1,0.3,0.2V13h0.1c0.1,0,0.1,0,0.2,0S19.6,13,19.7,12.9C19.6,12.9,19.7,12.9,19.7,12.9L19.7,12.9z"/>
		<path class="st1" d="M19.7,12.4c0.1,0,0.1-0.1,0.2-0.1c0.1,0,0.1-0.1,0.2-0.1s0.1,0,0.2,0.1c0,0,0,0.1,0,0.2v0.1v0.1
			c0,0,0,0,0,0.1c0,0,0,0,0,0.1l0,0l0,0l0,0v0.1c0,0,0,0.1-0.1,0.1c0,0.1,0,0.3,0,0.4c0,0.2,0,0.3,0,0.4c0,0,0.1,0,0.2,0
			s0.2,0,0.2-0.1h0.1l0,0h0.1h0.1h0.1H21l0.1,0.1c0,0,0,0,0-0.1l0,0c0,0,0.1,0,0.1,0.1l0.1,0.1l0.1,0.1v0.1c0,0,0,0.1,0,0.2
			c0,0.1,0,0.1,0,0.1c0,0.2,0,0.4,0,0.6c0,0.2,0,0.4,0.1,0.4v0.1c0,0,0,0,0,0.1v0.1v0.1v0.1c0,0.1,0,0.1,0,0.2h-0.1h-0.1h-0.1
			C21,16,21,16,21,15.9L21,15.8c0-0.1,0-0.2,0-0.3c0-0.1,0-0.2,0-0.3c0-0.1,0-0.3,0-0.4c0-0.2,0-0.3,0-0.4v-0.3
			c-0.1,0-0.2,0-0.4,0.1l0,0c0,0,0,0-0.1,0l0,0l0,0l0,0l0,0h-0.1c0,0-0.1,0-0.1,0.1h-0.1h-0.1c0,0.1,0,0.1,0,0.2c0,0.1,0,0.1,0,0.2
			v0.1c0,0.1,0,0.1,0,0.2c0,0.1,0,0.1,0,0.2c0,0.1,0,0.2,0,0.2c0,0.1,0,0.2,0,0.3c0,0.1,0,0.1-0.1,0.1H20h-0.1c-0.1,0-0.1,0-0.2,0
			c0,0-0.1,0-0.1-0.1v-0.1v-0.1v-0.1c0,0,0,0,0-0.1c0.1-0.4,0.1-0.7,0.1-1.1c0-0.2,0-0.4,0-0.6c0-0.3,0-0.4-0.1-0.7L19.7,12.4
			L19.7,12.4z M21.1,13.5L21.1,13.5L21.1,13.5L21.1,13.5z"/>
		<path class="st1" d="M22.6,13.5L22.6,13.5L22.6,13.5c0.1-0.1,0.1-0.1,0.2-0.1h0.1c0.1,0,0.1,0,0.2,0.1c0.1,0,0.1,0.1,0.2,0.1
			c0.1,0,0.1,0.1,0.1,0.1l0,0c0.1,0.1,0.1,0.2,0.2,0.3c0,0.1,0.1,0.1,0.1,0.2l0,0l0,0c0,0,0,0,0,0.1l0,0c0,0.1,0,0.2-0.1,0.2
			c0,0.1-0.1,0.1-0.2,0.2c-0.1,0-0.1,0.1-0.2,0.2c-0.1,0.1-0.2,0.1-0.3,0.2c0,0,0,0,0,0.1v0.1v0.1c0,0,0,0-0.1,0.1c0,0,0,0-0.1,0
			s-0.1,0-0.1,0l0,0c0.1,0.1,0.1,0.2,0.2,0.2c0.1,0.1,0.1,0.1,0.2,0.1s0.1,0,0.1,0.1h0.1c0,0,0.1,0,0.1,0.1l0.1,0.1
			c-0.1,0.1-0.1,0.1-0.2,0.2c-0.1,0-0.1,0.1-0.2,0.1l0,0c-0.1,0-0.1,0-0.2-0.1c-0.1,0-0.1,0-0.1,0s0,0-0.1,0h-0.1c0,0,0,0-0.1-0.1
			l-0.1-0.1c0-0.1-0.1-0.1-0.1-0.2c0-0.1-0.1-0.2-0.1-0.2c-0.1-0.1-0.1-0.2-0.2-0.3c0-0.1-0.1-0.2-0.1-0.2c0-0.1,0-0.1-0.1-0.2
			c0-0.1,0-0.1,0-0.2c0-0.1,0-0.2,0.1-0.3c0.1-0.1,0.1-0.2,0.2-0.2c0.1-0.1,0.2-0.2,0.3-0.2c0.1-0.1,0.2-0.1,0.3-0.2l0,0
			C22.5,13.6,22.5,13.6,22.6,13.5C22.5,13.6,22.6,13.5,22.6,13.5z M22.3,14.8c0,0.1,0,0.1,0.1,0.2l0,0c0,0,0,0,0.1,0c0,0,0,0,0.1,0
			l0,0c0.2,0,0.3-0.1,0.4-0.2c0.1-0.1,0.2-0.2,0.2-0.3v-0.1c0,0,0-0.1-0.1-0.1c0,0-0.1,0-0.1-0.1l-0.1-0.1l0,0c-0.1,0-0.1,0-0.2,0
			l0,0c0,0-0.1,0-0.1,0.1l-0.1,0.1l-0.1,0.1l-0.1,0.1c0,0,0,0,0,0.1L22.3,14.8C22.2,14.7,22.2,14.8,22.3,14.8z"/>
		<path class="st1" d="M25.6,15.4C25.6,15.4,25.6,15.5,25.6,15.4v0.2c0,0.1,0,0.1,0,0.2c0,0,0,0.1-0.1,0.1c0,0-0.1,0-0.1,0.1h-0.1
			h-0.1c0,0,0,0-0.1-0.1l0,0l0,0c0,0,0,0-0.1,0v-0.9c0-0.2,0-0.3,0-0.4s0-0.2,0-0.3c0-0.1,0-0.1-0.1-0.1l-0.1-0.1l0,0l0,0h-0.1h-0.1
			h-0.1c-0.3,0-0.4,0.3-0.4,0.8c0,0.1,0,0.2,0,0.3c0,0.1,0,0.2,0,0.3c0,0.2,0,0.3-0.1,0.4C24.1,15.9,24.1,16,24,16s-0.2-0.1-0.3-0.2
			c0-0.1,0.1-0.2,0.1-0.3c0,0,0,0,0-0.1v-0.1c0-0.2,0-0.4-0.1-0.5c0-0.2,0-0.4,0-0.4c0-0.1,0-0.2,0-0.3c0-0.1,0-0.2,0-0.3
			c0-0.1,0-0.2,0.1-0.2c0-0.1,0.1-0.1,0.2-0.1s0.2,0.1,0.3,0.2l0,0c0.1-0.1,0.2-0.1,0.3-0.1c0.1,0,0.2,0,0.3,0
			c0.3,0,0.4,0.1,0.5,0.3h0.1c0,0,0.1,0,0.1,0.1l0.1,0.1c0,0,0.1,0.1,0.1,0.2v0.1l0,0c0,0,0,0,0,0.1v0.1l0,0c0,0.1,0,0.2,0,0.3
			c0,0.1,0,0.2,0,0.3l0,0v0.1l0,0l0,0l0,0l0,0L25.6,15.4C25.6,15.3,25.6,15.4,25.6,15.4C25.6,15.3,25.6,15.4,25.6,15.4z"/>
		<path class="st1" d="M27.1,12.9C27.1,12.9,27.1,12.9,27.1,12.9L27.1,12.9c0.1,0,0.1-0.1,0.2-0.1s0.1,0.1,0.1,0.2l0,0
			c0,0.1,0,0.1,0,0.2s0,0.1-0.1,0.1c0,0-0.1,0-0.2,0H27c0,0-0.1,0-0.1,0.1c0,0-0.1,0-0.1,0.1h-0.1l0,0l0,0l0,0l0,0
			c0,0.1,0,0.2,0,0.3c0,0.1,0,0.2,0,0.3c0,0.2,0,0.4,0,0.5s0,0.4-0.1,0.6c0.1,0.1,0.1,0.2,0.1,0.4c0,0.1,0,0.2-0.1,0.2
			c0,0-0.1,0.1-0.2,0.1c0,0,0,0-0.1,0h-0.1h-0.1c-0.1,0-0.1,0-0.2,0l-0.1-0.1c0,0,0,0,0-0.1c0.1-0.2,0.1-0.4,0.1-0.6
			c0-0.3,0-0.5,0-0.8c0,0,0-0.1,0-0.2c0-0.1,0-0.2,0-0.3l0,0c0,0,0,0,0,0.1l0,0l0,0l0,0l0,0l0,0l0,0l0,0l0,0l0,0l0,0l0,0l0,0l0,0
			h-0.1c0,0,0,0-0.1,0s-0.1,0-0.1,0v-0.1c0,0,0-0.1,0-0.2c0-0.1,0-0.2-0.1-0.3h0.1c0.1,0,0.1,0,0.2,0s0.1,0,0.2-0.1
			c0.1,0,0.1,0,0.1-0.1l0,0l0,0l0,0c0-0.1,0-0.2,0-0.3c0-0.1,0-0.2,0-0.2v-0.2l0,0l0,0v-0.1v-0.1c0,0,0-0.1,0.1-0.1h0.1
			c0.1,0,0.2,0.1,0.3,0.2V13h0.1c0.1,0,0.1,0,0.2,0C27,13,27,13,27.1,12.9C27,12.9,27.1,12.9,27.1,12.9L27.1,12.9z"/>
		<path class="st1" d="M27.9,14.1c0,0.2,0,0.4,0,0.4c0,0.2,0,0.3,0,0.4v0.6c-0.1,0.1-0.2,0.2-0.3,0.2h-0.1c0,0,0,0-0.1-0.1v-0.1
			v-0.1V15c0-0.3,0-0.5,0-0.8c0-0.3-0.1-0.4-0.1-0.6c0,0,0,0,0-0.1c0-0.1,0.1-0.2,0.2-0.2h0.1c0,0,0,0,0.1,0h0.1
			c0.1,0,0.1,0,0.2,0.1c0,0,0,0.1,0,0.2C28,13.8,27.9,14,27.9,14.1z M27.9,12.7C27.9,12.7,27.9,12.7,27.9,12.7
			c0.1,0.1,0.1,0.2,0.1,0.3l0,0c0,0.1,0,0.2-0.1,0.2h-0.1l0,0l0,0h-0.1h-0.1c-0.1,0-0.1,0-0.1,0v-0.1c0,0,0,0,0-0.1l0,0l0,0
			c0,0,0,0,0-0.1c0,0,0,0,0-0.1v-0.1c0-0.1,0-0.2,0.1-0.2C27.6,12.6,27.7,12.6,27.9,12.7L27.9,12.7L27.9,12.7z"/>
		<path class="st1" d="M29.7,15.5C29.7,15.5,29.8,15.5,29.7,15.5L29.7,15.5C29.7,15.6,29.7,15.6,29.7,15.5L29.7,15.5l0.2,0.1
			c0,0,0,0,0,0.1v0.1v0.1c0,0,0,0,0,0.1s-0.1,0.2-0.2,0.2l-0.3-0.2l0,0c-0.1,0-0.2-0.1-0.3-0.1l-0.3-0.2l-0.1-0.1c0,0,0,0-0.1,0l0,0
			l0,0v-0.1l0,0c-0.1-0.1-0.2-0.2-0.4-0.3c-0.1-0.1-0.3-0.3-0.4-0.4l0.2-0.2l0,0l0,0c0.1-0.1,0.1-0.1,0.2-0.1l0.1-0.1l0.1-0.1
			c0,0,0.1-0.1,0.2-0.1s0.1-0.1,0.2-0.1c0.2-0.2,0.4-0.3,0.4-0.4l0,0h0.1c0.1,0,0.1,0,0.2,0.1c0,0,0.1,0.1,0.1,0.2s-0.1,0.1-0.1,0.2
			c-0.1,0.1-0.1,0.1-0.2,0.2c-0.2,0.1-0.3,0.2-0.4,0.3c-0.1,0.1-0.2,0.2-0.3,0.2C28.7,15,28.7,15,28.7,15l-0.1,0.1l0,0
			c0,0,0,0.1,0.1,0.1c0.1,0.1,0.1,0.1,0.2,0.2l0,0l0,0c0,0,0,0,0.1,0.1c0,0,0,0,0.1,0.1c0,0,0,0,0.1,0.1s0.2,0.1,0.3,0.2
			C29.4,15.3,29.5,15.4,29.7,15.5L29.7,15.5L29.7,15.5z M28.8,15.3L28.8,15.3L28.8,15.3L28.8,15.3z M29.6,15.4L29.6,15.4L29.6,15.4
			L29.6,15.4L29.6,15.4z"/>
		<path class="st1" d="M33.3,12.8L33.3,12.8L33.3,12.8c-0.4,0.2-0.6,0.4-0.9,0.5c-0.3,0.2-0.4,0.4-0.6,0.4c0,0,0,0.1-0.1,0.1
			c0,0,0,0.1-0.1,0.1c0.4,0.4,0.9,0.7,1.5,1.1v-0.1v-0.1v-0.1c0-0.1,0-0.1,0-0.2s0-0.2,0-0.3s0-0.2,0-0.3h-0.3c-0.1,0-0.1,0-0.1,0
			V14l0,0l0,0l0,0v-0.1c0,0,0,0,0-0.1c0,0,0,0,0-0.1c0,0,0,0,0-0.1c0-0.1,0-0.1,0-0.1h0.1l0,0l0,0l0,0c0,0,0,0,0.1,0l0,0l0,0l0,0
			l0,0c0,0,0,0,0.1,0h0.1c0.1,0,0.1,0,0.2,0s0.2,0,0.3,0.1c0,0.1-0.1,0.1-0.1,0.1v0.1v0.1c0,0.1,0,0.1,0,0.2c0,0.1,0,0.1,0,0.2
			s0,0.1,0,0.1v0.1v0.1v0.1v0.1c0,0,0,0,0,0.1c0,0,0,0,0,0.1c-0.1,0.2-0.1,0.4-0.1,0.6h-0.1h-0.1c-0.1,0-0.1,0-0.2-0.1
			c-0.1,0-0.1-0.1-0.2-0.1c-0.1,0-0.1-0.1-0.2-0.1c-0.1,0-0.1-0.1-0.2-0.1c-0.1,0-0.1-0.1-0.2-0.2c-0.1-0.1-0.2-0.2-0.4-0.3
			c-0.3-0.2-0.5-0.4-0.7-0.5c-0.2-0.2-0.4-0.4-0.4-0.4c0.1-0.1,0.1-0.2,0.3-0.3c0.1-0.1,0.3-0.2,0.4-0.3c0.1-0.1,0.3-0.2,0.4-0.3
			c0.1-0.1,0.2-0.2,0.3-0.3l0.4-0.4l0,0l0,0l0,0l0.1-0.1l0.1-0.1c0,0,0.1-0.1,0.2-0.1c0.1,0,0.1-0.1,0.2-0.2l0,0h0.1l0.1,0.1
			l0.1,0.1l0.1,0.1c0,0.1-0.1,0.1-0.2,0.2C33.6,12.7,33.5,12.8,33.3,12.8L33.3,12.8z"/>
		<path class="st1" d="M35.3,13.6c0.1,0.1,0.2,0.2,0.2,0.3c0,0.1,0,0.1,0,0.2c0,0-0.1,0.1-0.2,0.1h-0.5c0,0,0,0-0.1,0c0,0,0,0-0.1,0
			h-0.1h-0.1c0,0,0,0,0,0.1v0.1c0,0,0,0,0,0.1c0,0,0,0.1,0,0.2c0,0.1,0,0.2,0,0.3c0,0.1,0,0.2,0,0.3c0,0.1,0,0.2,0,0.3
			c0,0.1,0,0.2,0,0.2c0,0.1,0,0.2,0,0.3c0,0.1,0,0.1-0.1,0.2l-0.1,0.1h-0.1c-0.1,0-0.1,0-0.2-0.1l-0.1-0.1c0-0.2,0-0.3,0-0.4
			c0-0.2,0-0.4,0-0.4c0-0.1,0-0.2,0-0.2c0-0.1,0-0.1,0-0.2c0-0.1,0-0.2,0-0.4c0-0.1,0-0.3,0-0.4c0.1,0,0.2,0,0.3,0s0.1,0,0.1,0
			c0.1,0,0.2,0,0.3,0s0.3,0,0.4,0L35.3,13.6L35.3,13.6z"/>
		<path class="st1" d="M36.2,13.5L36.2,13.5L36.2,13.5c0.1-0.1,0.1-0.1,0.2-0.1h0.1c0.1,0,0.1,0,0.2,0.1c0.1,0,0.1,0.1,0.2,0.1
			c0.1,0,0.1,0.1,0.1,0.1l0,0c0.1,0.1,0.1,0.2,0.2,0.3c0,0.1,0.1,0.1,0.1,0.2l0,0l0,0c0,0,0,0,0,0.1l0,0c0,0.1,0,0.2-0.1,0.2
			c0,0.1-0.1,0.1-0.2,0.2c-0.1,0-0.1,0.1-0.2,0.2c-0.1,0.1-0.2,0.1-0.3,0.2c0,0,0,0,0,0.1v0.1v0.1c0,0,0,0-0.1,0.1c0,0,0,0-0.1,0
			s-0.1,0-0.1,0l0,0c0.1,0.1,0.1,0.2,0.2,0.2c0.1,0.1,0.1,0.1,0.2,0.1c0.1,0,0.1,0,0.1,0.1h0.1c0,0,0.1,0,0.1,0.1l0.1,0.1
			c-0.1,0.1-0.1,0.1-0.2,0.2c-0.1,0-0.1,0.1-0.2,0.1l0,0c-0.1,0-0.1,0-0.2-0.1c-0.1,0-0.1,0-0.1,0s0,0-0.1,0h-0.1c0,0,0,0-0.1-0.1
			L36,15.8c0-0.1-0.1-0.1-0.1-0.2c0-0.1-0.1-0.2-0.1-0.2c-0.1-0.1-0.1-0.2-0.2-0.3c0-0.1-0.1-0.2-0.1-0.2c0-0.1,0-0.1-0.1-0.2
			c0-0.1,0-0.1,0-0.2c0-0.1,0-0.2,0.1-0.3c0.1-0.1,0.1-0.2,0.2-0.2c0.1-0.1,0.2-0.2,0.3-0.2c0.1-0.1,0.2-0.1,0.3-0.2l0,0
			C36.2,13.6,36.2,13.6,36.2,13.5C36.2,13.6,36.2,13.5,36.2,13.5z M35.8,14.8c0,0.1,0,0.1,0.1,0.2l0,0c0,0,0,0,0.1,0c0,0,0,0,0.1,0
			l0,0c0.2,0,0.3-0.1,0.4-0.2c0.1-0.1,0.2-0.2,0.2-0.3v-0.1c0,0,0-0.1-0.1-0.1c0,0-0.1,0-0.1-0.1l-0.1-0.1l0,0c-0.1,0-0.1,0-0.2,0
			l0,0c0,0-0.1,0-0.1,0.1L36,14.3l-0.1,0.1l-0.1,0.1c0,0,0,0,0,0.1L35.8,14.8C35.8,14.7,35.8,14.8,35.8,14.8z"/>
		<path class="st1" d="M38.2,13.5L38.2,13.5L38.2,13.5c0.1-0.1,0.1-0.1,0.2-0.1h0.1c0.1,0,0.1,0,0.2,0.1c0.1,0,0.1,0.1,0.2,0.1
			c0.1,0,0.1,0.1,0.1,0.1l0,0c0.1,0.1,0.1,0.2,0.2,0.3c0,0.1,0.1,0.1,0.1,0.2l0,0l0,0c0,0,0,0,0,0.1l0,0c0,0.1,0,0.2-0.1,0.2
			c0,0.1-0.1,0.1-0.2,0.2c-0.1,0-0.1,0.1-0.2,0.2c-0.1,0.1-0.2,0.1-0.3,0.2c0,0,0,0,0,0.1v0.1v0.1c0,0,0,0-0.1,0.1c0,0,0,0-0.1,0
			s-0.1,0-0.1,0l0,0c0.1,0.1,0.1,0.2,0.2,0.2c0.1,0.1,0.1,0.1,0.2,0.1c0.1,0,0.1,0,0.1,0.1h0.1c0,0,0.1,0,0.1,0.1l0.1,0.1
			c-0.1,0.1-0.1,0.1-0.2,0.2c-0.1,0-0.1,0.1-0.2,0.1l0,0c-0.1,0-0.1,0-0.2-0.1c-0.1,0-0.1,0-0.1,0s0,0-0.1,0h-0.1c0,0,0,0-0.1-0.1
			l-0.1-0.1c0-0.1-0.1-0.1-0.1-0.2c0-0.1-0.1-0.2-0.1-0.2c-0.1-0.1-0.1-0.2-0.2-0.3c0-0.1-0.1-0.2-0.1-0.2c0-0.1,0-0.1-0.1-0.2
			c0-0.1,0-0.1,0-0.2c0-0.1,0-0.2,0.1-0.3c0.1-0.1,0.1-0.2,0.2-0.2c0.1-0.1,0.2-0.2,0.3-0.2c0.1-0.1,0.2-0.1,0.3-0.2l0,0
			C38.1,13.6,38.1,13.6,38.2,13.5C38.1,13.6,38.1,13.5,38.2,13.5z M37.8,14.8c0,0.1,0,0.1,0.1,0.2l0,0c0,0,0,0,0.1,0c0,0,0,0,0.1,0
			l0,0c0.2,0,0.3-0.1,0.4-0.2c0.1-0.1,0.2-0.2,0.2-0.3v-0.1c0,0,0-0.1-0.1-0.1c0,0-0.1,0-0.1-0.1l-0.1-0.1l0,0c-0.1,0-0.1,0-0.2,0
			l0,0c0,0-0.1,0-0.1,0.1L38,14.3l-0.1,0.1l-0.1,0.1c0,0,0,0,0,0.1L37.8,14.8C37.7,14.7,37.7,14.8,37.8,14.8z"/>
		<path class="st1" d="M40.2,15.3C40.2,15.3,40.1,15.3,40.2,15.3C40.1,15.3,40.1,15.3,40.2,15.3C40.1,15.2,40.1,15.2,40.2,15.3
			L40.2,15.3c-0.1-0.1-0.2-0.2-0.3-0.2c-0.1-0.1-0.1-0.1-0.2-0.2V15v0.1c0.1,0.1,0.1,0.2,0.1,0.4c0,0.1,0,0.2-0.1,0.2
			c0,0-0.1,0.1-0.2,0.1c0,0,0,0-0.1,0h-0.1h-0.1c-0.1,0-0.1,0-0.2,0l-0.1-0.1c0,0,0,0,0-0.1c0.1-0.4,0.2-0.9,0.2-1.4
			c0-0.1,0-0.1,0-0.3c0-0.1,0-0.3,0-0.4c0-0.2,0-0.3,0-0.4c0-0.2,0-0.3,0-0.4v-0.2l0,0l0,0v-0.1v-0.1c0,0,0-0.1,0.1-0.1h0.1
			c0.1,0,0.2,0.1,0.3,0.2v0.7c0,0.1,0,0.3,0,0.4c0,0.2,0,0.3,0,0.4v0.2l0.1-0.1l0.1-0.1c0,0,0.1-0.1,0.2-0.1c0.1,0,0.1-0.1,0.2-0.1
			c0.1-0.1,0.2-0.2,0.3-0.2c0.1-0.1,0.2-0.1,0.3-0.2l0,0h0.1c0.1,0,0.1,0,0.2,0.1c0,0,0.1,0.1,0.1,0.2c0,0.1-0.1,0.1-0.1,0.2
			c-0.1,0.1-0.1,0.1-0.2,0.2c-0.2,0.1-0.3,0.3-0.4,0.3c-0.1,0.1-0.2,0.2-0.3,0.2c-0.1-0.1-0.1-0.1-0.2-0.1L40,14.5l0,0
			c0,0,0,0.1,0.1,0.1c0.1,0.1,0.1,0.1,0.2,0.2l0,0c0.1,0,0.1,0.1,0.1,0.1h0.1l0,0l0,0l0.1,0.1l0.1,0.1l0.1,0.1l0.1,0.1l0,0
			c0,0,0.1,0,0.1,0.1c0,0,0,0,0.1,0l0,0c0,0,0,0,0.1,0.1l0,0v0.1v0.1l0,0c0,0.1-0.1,0.2-0.2,0.2l-0.3-0.2c-0.1,0-0.2-0.1-0.3-0.1
			L40.2,15.3C40.3,15.3,40.2,15.3,40.2,15.3z"/>
		<path class="st1" d="M42.8,13.1c0-0.1,0-0.2,0-0.3l-0.1-0.2c0-0.1,0-0.1,0-0.2c0-0.1,0-0.1,0-0.2c0.1,0,0.2,0,0.3,0s0.1,0,0.2,0
			c0.1,0,0.1,0,0.2,0v0.1l0,0l0,0c0,0,0,0.1,0,0.2c0,0.1,0,0.2,0,0.3c-0.1,0.1-0.2,0.2-0.2,0.4v0.1v0.1l0,0v0.1h0.1h0.1h0.1
			c0.1,0,0.1,0,0.2,0c0.1,0,0.2,0,0.3,0.1c0.1,0,0.2,0,0.2,0.1c0.1,0,0.1,0,0.2,0c0-0.2,0-0.4,0-0.5s0-0.3,0.1-0.4c0,0,0,0-0.1-0.1
			v-0.1l0,0c0,0,0,0,0-0.1l0,0l0,0c0,0,0,0,0-0.1v-0.1c0-0.1,0-0.1,0-0.2c0,0,0.1-0.1,0.2-0.1c0.2,0.1,0.3,0.1,0.4,0.2l-0.1,0.5
			c0,0.3,0,0.5-0.1,0.7c0,0.3,0,0.4,0,0.6c0,0.2,0,0.4,0,0.5s0,0.4,0.1,0.5v0.1c0,0.1,0,0.2-0.1,0.2c0,0.1-0.1,0.1-0.3,0.1h-0.1
			h-0.1v-0.1v-0.1c0,0,0,0,0-0.1v-0.1c0-0.1,0-0.1,0-0.2c0-0.1,0-0.1,0-0.2c0-0.1,0-0.1,0-0.2c0-0.1,0-0.1,0-0.1c0-0.1,0-0.3,0-0.4
			c0,0,0,0-0.1,0h-0.1l0,0c0,0-0.1,0-0.1-0.1c0,0-0.1,0-0.1-0.1c0,0,0,0-0.1,0s-0.1-0.1-0.2-0.1c-0.1,0-0.2-0.1-0.3-0.1
			s-0.2,0-0.3-0.1v0.1v0.1v0.3c0,0.1,0,0.2,0,0.3c0,0.1,0,0.2,0,0.3c0,0.2,0,0.4,0,0.4c-0.1,0.1-0.1,0.1-0.2,0.1c-0.1,0-0.2,0-0.2,0
			l0,0c0,0,0,0-0.1,0c0,0,0,0-0.1,0v-0.1V15c0,0,0,0,0-0.1v-0.1v-0.1v-0.1c0,0,0,0,0-0.1c0.1-0.3,0.1-0.6,0.1-1.1c0,0,0-0.1,0-0.2
			c0-0.1,0-0.1,0-0.2c0-0.1,0-0.2,0-0.2c0-0.1,0-0.1,0-0.2C42.8,13.3,42.8,13.2,42.8,13.1z"/>
		<path class="st1" d="M45.3,13.8c0.2-0.2,0.4-0.3,0.7-0.3c0,0,0.1,0,0.2,0c0.1,0,0.2,0,0.3,0.1c0.1,0,0.2,0.1,0.3,0.2
			s0.2,0.2,0.2,0.3l0.1,0.1l0.1,0.1l0.1,0.1c0,0,0.1,0.1,0.1,0.2l0,0v0.1v0.1v0.2l0,0l0,0l0,0c0,0.2-0.1,0.3-0.1,0.4
			c0,0.1-0.1,0.2-0.2,0.2l0,0c-0.1,0.1-0.2,0.1-0.3,0.2c-0.1,0-0.2,0.1-0.3,0.1s-0.2,0.1-0.2,0.1c-0.2,0-0.3,0-0.4-0.1
			c-0.1-0.1-0.3-0.2-0.4-0.3c-0.1-0.1-0.2-0.2-0.2-0.4c-0.1-0.1-0.1-0.3-0.1-0.4c0-0.1,0-0.1,0-0.2l0.1-0.4l0,0c0-0.1,0-0.2,0.1-0.3
			C45.3,13.9,45.3,13.8,45.3,13.8L45.3,13.8z M46.7,14.3c0-0.1-0.1-0.2-0.1-0.3c-0.1-0.1-0.1-0.1-0.2-0.2c-0.1,0-0.1-0.1-0.2-0.1
			h-0.1c0,0,0,0-0.1,0H46h-0.1c-0.1,0-0.2,0.1-0.3,0.2c0,0.4,0,0.5,0,0.7c0,0.1,0,0.2,0,0.3s0,0.1,0,0.2v0.1c0,0,0,0,0.1,0h0.1
			c0,0,0.1,0,0.1,0.1c0,0,0.1,0,0.1,0.1H46c0.2,0,0.3-0.1,0.4-0.2c0.1-0.2,0.2-0.4,0.2-0.5C46.7,14.5,46.7,14.4,46.7,14.3z"/>
		<path class="st1" d="M47.8,14.5c0,0.2,0,0.4,0,0.6c0.1,0.1,0.1,0.2,0.1,0.4c0,0.1,0,0.2,0,0.2s-0.1,0.1-0.2,0.1c0,0,0,0-0.1,0
			h-0.1h-0.1c-0.1,0-0.2-0.1-0.2-0.2c0,0,0,0,0-0.1c0-0.2,0.1-0.4,0.1-0.6c0-0.3,0-0.5,0-0.8c0-0.1,0-0.1,0-0.3c0-0.1,0-0.3,0-0.4
			c0-0.2,0-0.3,0-0.4c0-0.2,0-0.3,0-0.4v-0.3v-0.1v-0.1c0,0,0-0.1,0.1-0.1h0.1c0.1,0,0.2,0.1,0.3,0.2V13c0,0.1,0,0.3,0,0.4
			c0,0.2,0,0.3,0,0.4C47.8,14.2,47.8,14.3,47.8,14.5z"/>
		<path class="st1" d="M48.5,14.1c0,0.2,0,0.4,0,0.4c0,0.2,0,0.3,0,0.4v0.6c-0.1,0.1-0.2,0.2-0.3,0.2h-0.1c0,0,0,0-0.1-0.1v-0.1
			v-0.1V15c0-0.3,0-0.5,0-0.8c0-0.3-0.1-0.4-0.1-0.6c0,0,0,0,0-0.1c0-0.1,0.1-0.2,0.2-0.2h0.1c0,0,0,0,0.1,0h0.1
			c0.1,0,0.1,0,0.2,0.1c0,0,0,0.1,0,0.2C48.6,13.8,48.5,14,48.5,14.1z M48.4,12.7C48.5,12.7,48.5,12.7,48.4,12.7
			c0.1,0.1,0.1,0.2,0.1,0.3l0,0c0,0.1,0,0.2-0.1,0.2h-0.1l0,0l0,0h-0.1h0c-0.1,0-0.1,0-0.1,0v-0.1c0,0,0,0,0-0.1l0,0l0,0
			c0,0,0,0,0-0.1c0,0,0,0,0-0.1v-0.1c0-0.1,0-0.2,0.1-0.2C48.3,12.6,48.3,12.6,48.4,12.7L48.4,12.7L48.4,12.7z"/>
		<path class="st1" d="M48.7,14.6c0.1-0.2,0.3-0.3,0.5-0.4c0.2-0.1,0.4-0.3,0.7-0.4c0,0,0,0,0-0.1v-0.1c0,0,0-0.1,0-0.2
			c0-0.1,0-0.1,0-0.2s0-0.2,0-0.2c0-0.1,0-0.1,0-0.2v-0.1v-0.1c0,0,0,0,0-0.1c0,0,0,0,0-0.1v-0.1v-0.1v-0.1l0,0c0,0,0,0,0-0.1
			c0.1,0,0.1,0,0.1,0s0,0,0.1,0l0,0l0,0h0.1h0.1h0.1c0,0,0,0,0.1,0c0,0,0,0.1,0.1,0.1v0.1v0.1v0.1c0,0,0,0,0,0.1l0,0
			c0,0,0,0.1-0.1,0.2c0,0.1,0,0.1,0,0.2l0,0v0.1v0.1v0.5c0,0.4,0,0.6,0,0.9s0,0.5,0.1,0.8v0.4c-0.1,0-0.2,0-0.2-0.1
			c-0.1,0-0.2-0.1-0.2-0.1c-0.1,0-0.1-0.1-0.2-0.1c-0.1,0-0.1,0-0.1-0.1c0,0-0.1,0-0.1-0.1v-0.1l0,0l0,0c-0.2-0.1-0.4-0.2-0.4-0.4
			C49.1,14.9,48.9,14.8,48.7,14.6L48.7,14.6z M49.9,14.3L49.9,14.3c-0.1-0.1-0.2,0-0.4,0c-0.1,0.1-0.2,0.1-0.4,0.2l0.1,0.1l0.1,0.1
			c0,0,0.1,0,0.1,0.1c0,0,0,0,0.1,0.1l0,0c0.2,0.1,0.3,0.2,0.4,0.3l0,0l0,0c0,0,0-0.1,0-0.2c0-0.1,0-0.1,0-0.2c0-0.1,0-0.2,0-0.2
			C49.9,14.5,49.9,14.5,49.9,14.3C49.9,14.4,49.9,14.4,49.9,14.3z"/>
		<path class="st1" d="M51.9,14.2c0-0.1-0.1-0.1-0.1-0.2l-0.1-0.1h-0.1h-0.1c-0.1,0-0.1,0-0.2,0c-0.1,0-0.2,0-0.2,0
			c-0.1,0-0.2,0-0.2-0.1c0,0-0.1-0.1-0.1-0.3c0.1-0.1,0.2-0.2,0.4-0.2l0,0h0.1h0.1h0.1l0,0c0,0,0,0,0.1,0h0.1h0.1l0,0l0,0l0,0
			c0.1,0,0.1,0,0.1,0s0.1,0,0.1,0.1l0,0c0,0,0,0,0.1,0.1c0,0,0,0.1,0.1,0.1c0,0,0,0.1,0.1,0.1c0,0.1,0.1,0.1,0.1,0.2l0,0
			c0.1,0.1,0.1,0.2,0.2,0.3c0,0.1,0.1,0.2,0.1,0.2c0,0.1,0,0.1,0.1,0.2c0,0.1,0,0.1,0,0.2c0,0.1,0,0.2-0.1,0.3s-0.1,0.2-0.2,0.2
			c-0.1,0.1-0.2,0.1-0.3,0.2c-0.1,0.1-0.2,0.1-0.3,0.2c0,0-0.1,0-0.1,0.1c0,0,0,0,0,0.1c0,0,0,0,0,0.1c0,0,0,0-0.1,0l0,0l0,0l0,0
			c-0.1,0-0.1,0-0.2-0.1c-0.1,0-0.1-0.1-0.2-0.1l0,0l0,0l0,0l0,0l0,0l-0.1-0.1c-0.1-0.1-0.1-0.1-0.1-0.2s-0.1-0.1-0.1-0.2
			c0-0.1,0-0.1-0.1-0.1l-0.1-0.2c0-0.1,0-0.2,0.1-0.3c0.1-0.1,0.1-0.1,0.2-0.2c0.1-0.1,0.2-0.1,0.3-0.2s0.2-0.1,0.2-0.2l0.1-0.1h0.1
			l0,0l0,0l0,0C51.7,14.2,51.8,14.2,51.9,14.2L51.9,14.2C51.8,14.2,51.8,14.2,51.9,14.2C51.8,14.2,51.8,14.2,51.9,14.2z M52.1,14.7
			c0-0.1,0-0.1-0.1-0.2l0,0l0,0c-0.1,0-0.2,0-0.3,0.1c-0.1,0-0.2,0.1-0.2,0.1c-0.1,0.1-0.1,0.1-0.2,0.2c-0.1,0.1-0.1,0.1-0.1,0.2
			v0.1c0,0,0,0,0,0.1c0,0,0,0,0.1,0c0,0,0,0,0.1,0.1l0,0c0,0,0.1,0,0.1,0.1c0,0,0,0,0.1,0c0,0,0,0,0.1,0h0.1c0.1,0,0.1-0.1,0.2-0.1
			c0.1,0,0.1-0.1,0.2-0.1c0.1-0.1,0.1-0.1,0.2-0.2l0,0l0,0l0,0l0,0v-0.1C52.1,14.8,52.1,14.7,52.1,14.7z"/>
		<path class="st1" d="M54.7,14c-0.1,0.1-0.1,0.1-0.2,0.2c0,0.1-0.1,0.2-0.1,0.3c0,0.1-0.1,0.2-0.1,0.3s0,0.1-0.1,0.2L54,15.3
			c-0.2,0.3-0.3,0.6-0.4,0.9c-0.1,0.3-0.3,0.5-0.4,0.8h-0.4v-0.1v-0.1c0-0.2,0.1-0.4,0.4-0.5c0.1-0.1,0.2-0.2,0.2-0.2
			c0-0.1,0.1-0.1,0.1-0.2c0-0.1,0-0.1,0.1-0.2c0-0.1,0.1-0.2,0.1-0.3l0,0v-0.1c0,0,0-0.1-0.1-0.1l-0.1-0.1c0,0,0-0.1-0.1-0.2
			c0-0.1-0.1-0.2-0.1-0.4c-0.1-0.1-0.1-0.3-0.2-0.4c0-0.1-0.1-0.1-0.1-0.2c0-0.1-0.1-0.1-0.1-0.1L52.8,14c-0.1,0-0.1-0.1-0.2-0.1
			c0-0.1,0-0.2,0-0.2l0,0c0,0,0,0,0-0.1h0.1h0.1c0,0,0,0,0.1,0l0,0H53l0,0l0,0c0.2,0.2,0.4,0.3,0.4,0.5c0.1,0.2,0.2,0.4,0.3,0.6
			c0,0.1,0,0.2,0.1,0.2c0,0.1,0,0.1,0,0.1c0-0.1,0.1-0.1,0.1-0.2c0-0.1,0.1-0.2,0.1-0.3c0-0.1,0.1-0.2,0.1-0.3
			c0-0.1,0.1-0.2,0.1-0.2l0.3-0.6c0.1-0.1,0.2-0.1,0.3-0.1c0,0,0,0,0.1,0s0.1,0,0.2,0c0,0.1,0,0.2,0,0.2c0,0.1,0,0.1,0,0.2
			c0,0,0,0.1-0.1,0.1C54.8,14,54.8,14,54.7,14L54.7,14z"/>
		<path class="st1" d="M55.9,13.8c0,0.1-0.1,0.1-0.2,0.2c-0.1,0.1-0.1,0.1-0.2,0.2c0.1,0.1,0.3,0.2,0.4,0.3c0.1,0.1,0.2,0.3,0.3,0.4
			c0,0.1,0,0.1-0.1,0.2c0,0.1-0.1,0.1-0.2,0.2s-0.1,0.1-0.2,0.1c-0.1,0-0.1,0.1-0.1,0.1l0,0c-0.1,0.1-0.1,0.1-0.1,0.2
			c0,0-0.1,0-0.1,0.1l0,0h-0.1h-0.1c0,0-0.1,0-0.1,0.1l0,0c0,0-0.1,0-0.1,0.1H55h-0.1h-0.1v-0.1c0-0.1,0-0.2,0.1-0.2
			c0.1-0.1,0.2-0.2,0.3-0.2s0.1-0.1,0.2-0.1c0,0,0.1,0,0.1-0.1l0.1-0.1l0.1-0.1v-0.1c-0.1,0-0.2-0.1-0.3-0.2c0-0.1,0-0.2-0.1-0.3
			c-0.1-0.1-0.1-0.1-0.2-0.2C55,14.2,55,14.2,55,14.1c0-0.1,0-0.1,0.1-0.2s0.2-0.2,0.3-0.3s0.2-0.2,0.3-0.3s0.2-0.2,0.3-0.3
			c0.1,0,0.1,0,0.2,0s0.1,0,0.2,0C56.2,13.6,56.1,13.8,55.9,13.8L55.9,13.8z"/>
	</g>
</g>
</svg>
