<?xml version="1.0" encoding="utf-8"?>
<!-- Generator: Adobe Illustrator 22.1.0, SVG Export Plug-In . SVG Version: 6.00 Build 0)  -->
<svg version="1.1" id="Layer_1" xmlns="http://www.w3.org/2000/svg" xmlns:xlink="http://www.w3.org/1999/xlink" x="0px" y="0px"
	 viewBox="0 0 70 20" style="enable-background:new 0 0 70 20;" xml:space="preserve">
<style type="text/css">
	.st0{fill:#FFFFFF;}
	.st1{clip-path:url(#SVGID_2_);}
	.st2{fill:url(#SVGID_3_);}
	.st3{clip-path:url(#SVGID_5_);}
	.st4{fill:url(#SVGID_6_);}
	.st5{clip-path:url(#SVGID_8_);}
	.st6{fill:url(#SVGID_9_);}
	.st7{opacity:0.75;clip-path:url(#SVGID_11_);enable-background:new    ;}
	.st8{clip-path:url(#SVGID_13_);}
	.st9{fill:#1F4283;}
</style>
<rect class="st0" width="70" height="20"/>
<g>
	<g>
		<g>
			<defs>
				<path id="SVGID_1_" d="M9.9,12.5c0,0.1-0.1,0.3-0.1,0.4c0,0.1,0,0.3,0,0.4c0,0.5,0.1,1.1,0.5,1.6c0,0,0,0,0,0
					c0.4,0.6,1.1,1,1.8,1.1c0.9,0.1,1.7-0.1,2.3-0.6c0,0,0-0.1,0,0c-0.1,0-0.2,0.1-0.4,0.1l0,0c-0.2,0-0.4,0-0.6,0
					c-0.1,0-0.1,0-0.2,0c-1.1-0.1-1.6-1-1.5-1.8c0.1-0.7,0.8-1.5,1.7-1.4c0,0,0,0,0,0c-0.3-0.3-0.7-0.4-1.2-0.4
					c0.2-0.1,0.4-0.2,0.7-0.2c0.7-0.1,1.8,0.4,2,1.3c0,0,0.1,0,0.1,0c0.2-1.2-0.8-2.4-2.1-2.6c-0.1,0-0.2,0-0.3,0
					C11.4,10.3,10.2,11.3,9.9,12.5L9.9,12.5z M14.1,15.5"/>
			</defs>
			<clipPath id="SVGID_2_">
				<use xlink:href="#SVGID_1_"  style="overflow:visible;"/>
			</clipPath>
			<g class="st1">
				
					<linearGradient id="SVGID_3_" gradientUnits="userSpaceOnUse" x1="-955.9786" y1="184.9464" x2="-955.7769" y2="184.9464" gradientTransform="matrix(-9.4515 31.1332 -31.0072 -9.4899 -3287.574 31528.4355)">
					<stop  offset="0" style="stop-color:#B1D78D"/>
					<stop  offset="0.59" style="stop-color:#14AAB7"/>
					<stop  offset="1" style="stop-color:#413B97"/>
				</linearGradient>
				<path class="st2" d="M15.9,11l-1.8,5.8L9,15.2l1.8-5.8L15.9,11z"/>
			</g>
		</g>
	</g>
	<g>
		<g>
			<defs>
				<path id="SVGID_4_" d="M14.1,2.3c-1.2,1.7-1.3,3.9-0.4,5.8c0.9,1.9,2.3,2.9,2.3,4.7c0.1,1.7-1.3,3.1-2.6,3.5
					c-0.9,0.2-2.1,0.1-2.9-0.6c0.7,1,2.7,1.5,3.8,1.5c1.7-0.1,2.7-0.5,3.7-1.5c1.2-1.3,1.3-2.5,1.1-4.2c-0.2-2.1-1.1-3.4-2.4-4.8
					c-1-1.1-2.1-2.9-1.1-4.8c0.3-0.5,0.8-1.2,1.2-1.5C16,0.8,14.9,1.3,14.1,2.3z"/>
			</defs>
			<clipPath id="SVGID_5_">
				<use xlink:href="#SVGID_4_"  style="overflow:visible;"/>
			</clipPath>
			<g class="st3">
				
					<linearGradient id="SVGID_6_" gradientUnits="userSpaceOnUse" x1="-954.0579" y1="201.6196" x2="-953.8561" y2="201.6196" gradientTransform="matrix(-10.3403 67.8219 -67.5472 -10.3823 3770.031 66804.3125)">
					<stop  offset="0" style="stop-color:#F6D85F"/>
					<stop  offset="0.28" style="stop-color:#F5C354"/>
					<stop  offset="0.65" style="stop-color:#5DC8DB"/>
					<stop  offset="0.96" style="stop-color:#434D9F"/>
					<stop  offset="1" style="stop-color:#413B97"/>
				</linearGradient>
				<path class="st4" d="M21.3,1.1l-2.6,16.9l-8.3-1.3L13-0.1L21.3,1.1z"/>
			</g>
		</g>
	</g>
	<g>
		<g>
			<defs>
				<path id="SVGID_7_" d="M17.7,7.9c1.5,2.1,2.1,5.1,0.5,7.3c-0.7,1-1.8,1.7-3.1,2.1c-1.2,0.3-2.6-0.1-3.6-0.6
					c0.5,0.4,1.1,0.7,1.4,0.8c0.5,0.2,1,0.4,1.6,0.5c1.1,0.2,2.3,0.1,3.3-0.2c1.9-0.6,3.5-2,4.2-3.8c0.2-0.5,0.3-1.1,0.4-1.6
					C22.6,10,21,8.2,19,6.4c-1.3-1-2-2.3-2.2-2.7v0c0,0,0-0.1,0-0.1l0,0c-0.3-0.7-0.4-1.4-0.3-2.5C14.5,4.3,16.5,6.1,17.7,7.9z"/>
			</defs>
			<clipPath id="SVGID_8_">
				<use xlink:href="#SVGID_7_"  style="overflow:visible;"/>
			</clipPath>
			<g class="st5">
				
					<linearGradient id="SVGID_9_" gradientUnits="userSpaceOnUse" x1="-956.4607" y1="203.6513" x2="-956.259" y2="203.6513" gradientTransform="matrix(-25.3507 76.22 -75.9114 -25.4537 -8767.207 78088.3281)">
					<stop  offset="0" style="stop-color:#FFF325"/>
					<stop  offset="0.4" style="stop-color:#F99E37"/>
					<stop  offset="0.43" style="stop-color:#F69D3A"/>
					<stop  offset="0.56" style="stop-color:#93A598"/>
					<stop  offset="0.59" style="stop-color:#70A8B9"/>
					<stop  offset="0.65" style="stop-color:#3AAADA"/>
					<stop  offset="0.75" style="stop-color:#23A5DE"/>
					<stop  offset="1" style="stop-color:#413B97"/>
				</linearGradient>
				<path class="st6" d="M25.3,4.2l-5.2,15.8l-9.7-3.2l5.2-15.8C15.7,0.9,25.3,4.2,25.3,4.2z"/>
			</g>
		</g>
	</g>
	<g>
		<g>
			<g>
				<g id="layer-1">
					<g>
						<defs>
							<rect id="SVGID_10_" x="15.9" y="1.8" width="5.4" height="8.6"/>
						</defs>
						<clipPath id="SVGID_11_">
							<use xlink:href="#SVGID_10_"  style="overflow:visible;"/>
						</clipPath>
						<g class="st7">
							<g>
								<g>
									<defs>
										<path id="SVGID_12_" d="M19,6.4c-1.3-1-2-2.3-2.2-2.7v0c0,0,0-0.1,0-0.1l0,0c-0.3-0.5-0.4-1.2-0.4-2
											c-0.4,1.1-0.8,2.5-0.1,3.8c1.3,2.5,4.2,5.1,4.9,4.8C21.8,10,21,8.2,19,6.4z"/>
									</defs>
									<clipPath id="SVGID_13_">
										<use xlink:href="#SVGID_12_"  style="overflow:visible;"/>
									</clipPath>
									<g class="st8">
										<g transform="matrix(0.986095,0,0,0.985482,-2.84217e-14,-2.84217e-14)">
											
												<image style="overflow:visible;enable-background:new    ;" width="31" height="35" id="_Image9" xlink:href="\\TUSTOVFS01\Group\Web\Logos\Olympic\2017 update\379E93A.png"  transform="matrix(0.1355 0 0 0.1354 15.9828 3.0183)">
											</image>
										</g>
									</g>
								</g>
							</g>
						</g>
					</g>
					<g transform="matrix(0.993515,0,0,0.993102,-2.84217e-14,-2.84217e-14)">
						
							<image style="overflow:visible;enable-background:new    ;" width="18" height="40" id="_Image10" xlink:href="\\TUSTOVFS01\Group\Web\Logos\Olympic\2017 update\379E93E.png"  transform="matrix(0.1365 0 0 0.1365 14.1512 0.6263)">
						</image>
					</g>
					<path class="st9" d="M26.7,10.9c1.3,0,1.9-1.1,1.9-2.4c0-1.3-0.5-2.4-1.9-2.4c-1.3,0-1.9,1.1-1.9,2.4
						C24.9,9.8,25.4,10.9,26.7,10.9 M26.7,5c2,0,3.2,1.3,3.2,3.5c0,2.2-1.2,3.5-3.2,3.5s-3.2-1.3-3.2-3.5S24.6,5,26.7,5"/>
					<path class="st9" d="M31,4.9c0-0.2,0.1-0.3,0.3-0.3H32c0.2,0,0.3,0.1,0.3,0.3v5c0,0.6,0.1,0.9,0.5,0.9c0.2,0,0.2,0,0.4,0
						c0.1,0,0.2,0.1,0.2,0.2v0.5c0,0.1,0,0.2-0.2,0.3C33,11.9,32.7,12,32.5,12c-1.3,0-1.5-1-1.5-2.1L31,4.9L31,4.9z"/>
					<path class="st9" d="M36,10.5L36,10.5l1.1-3.2c0.1-0.2,0.2-0.3,0.4-0.3h0.7c0.1,0,0.2,0.1,0.2,0.2c0,0,0,0.1,0,0.2L35.9,14
						c-0.1,0.2-0.2,0.3-0.4,0.3h-0.7c-0.1,0-0.2-0.1-0.2-0.2c0,0,0-0.1,0-0.2l0.8-1.9l-1.8-4.7c0-0.1,0-0.1,0-0.2
						c0-0.1,0.1-0.2,0.2-0.2h0.8c0.2,0,0.3,0.1,0.4,0.3L36,10.5L36,10.5z"/>
					<path class="st9" d="M39.5,11.9c-0.2,0-0.3-0.1-0.3-0.3V7.3c0-0.2,0.1-0.3,0.3-0.3h0.7c0.2,0,0.3,0.1,0.3,0.3v0.4h0
						c0.3-0.5,0.7-0.8,1.4-0.8c0.8,0,1.3,0.4,1.6,0.9h0c0.3-0.5,0.7-0.9,1.5-0.9c1.3,0,1.7,0.9,1.7,2v2.6c0,0.2-0.1,0.3-0.3,0.3
						h-0.7c-0.2,0-0.3-0.1-0.3-0.3V9.3c0-0.8-0.1-1.3-0.8-1.3c-0.8,0-1,0.8-1,1.7v1.9c0,0.2-0.1,0.3-0.3,0.3h-0.7
						c-0.2,0-0.3-0.1-0.3-0.3V9.3c0-0.8-0.1-1.3-0.8-1.3c-0.7,0-1,0.6-1,1.7v1.9c0,0.2-0.1,0.3-0.3,0.3L39.5,11.9L39.5,11.9z"/>
					<path class="st9" d="M49.3,9.4c0,1,0.5,1.6,1.2,1.6c0.8,0,1.2-0.7,1.2-1.5c0-0.8-0.4-1.5-1.2-1.5C49.7,8,49.3,8.7,49.3,9.4
						 M48.3,14.3c-0.2,0-0.3-0.1-0.3-0.3V7.3c0-0.2,0.1-0.3,0.3-0.3H49c0.2,0,0.3,0.1,0.3,0.3v0.4h0c0.4-0.5,0.9-0.8,1.6-0.8
						c1.4,0,2.1,1.2,2.1,2.6c0,1.3-0.7,2.5-2.1,2.5c-0.7,0-1.2-0.2-1.5-0.7h0V14c0,0.2-0.1,0.3-0.3,0.3H48.3L48.3,14.3z"/>
					<path class="st9" d="M54,7.3C54,7.1,54.1,7,54.3,7H55c0.2,0,0.3,0.1,0.3,0.3v4.2c0,0.2-0.1,0.3-0.3,0.3h-0.7
						c-0.2,0-0.3-0.1-0.3-0.3V7.3z"/>
					<path class="st9" d="M60.2,11.5c0,0.1-0.1,0.2-0.2,0.3c-0.3,0.1-0.7,0.2-1.1,0.2c-1.6,0-2.6-1.1-2.6-2.5c0-1.5,1-2.5,2.6-2.5
						c0.3,0,0.7,0,1,0.2c0.2,0.1,0.2,0.2,0.2,0.3l0,0.5c0,0.1-0.1,0.2-0.2,0.2c-0.2,0-0.4-0.2-0.9-0.2c-0.9,0-1.4,0.7-1.4,1.6
						c0,0.9,0.6,1.5,1.5,1.5c0.5,0,0.7-0.2,0.8-0.2c0.1,0,0.2,0,0.2,0.2L60.2,11.5L60.2,11.5z"/>
					<path class="st9" d="M54.7,4.6c0.4,0,0.7,0.3,0.7,0.7c0,0.4-0.3,0.7-0.7,0.7c-0.4,0-0.7-0.3-0.7-0.7
						C53.9,4.9,54.3,4.6,54.7,4.6"/>
					<path class="st9" d="M59.9,15.7l0,0.2c0,0.1,0,0.1-0.1,0.1c-0.1,0-0.2-0.1-0.5-0.1c-0.2,0-0.4,0.1-0.4,0.3
						c0,0.2,0.2,0.3,0.6,0.5c0.4,0.2,0.6,0.4,0.6,0.8c0,0.6-0.5,0.8-1,0.8c-0.2,0-0.4,0-0.6-0.1c-0.1,0-0.1-0.1-0.1-0.2l0-0.2
						c0-0.1,0-0.1,0.1-0.1c0.1,0,0.2,0.2,0.6,0.2c0.2,0,0.5-0.1,0.5-0.3c0-0.2-0.2-0.3-0.5-0.5c-0.4-0.2-0.6-0.4-0.6-0.8
						c0-0.5,0.4-0.7,0.9-0.7c0.2,0,0.4,0,0.5,0.1C59.9,15.6,59.9,15.6,59.9,15.7"/>
					<path class="st9" d="M39.3,14.6c0-0.1,0-0.1,0.1-0.1h0.2c0.1,0,0.1,0,0.1,0.1V16h1.8v-1.4c0-0.1,0-0.1,0.1-0.1h0.2
						c0.1,0,0.1,0,0.1,0.1V18c0,0.1,0,0.1-0.1,0.1h-0.2c-0.1,0-0.1,0-0.1-0.1v-1.5h-1.8V18c0,0.1,0,0.1-0.1,0.1h-0.2
						c-0.1,0-0.1,0-0.1-0.1V14.6z"/>
					<path class="st9" d="M44.1,17.8c0.5,0,0.9-0.5,0.9-1c0-0.5-0.3-1-0.9-1c-0.6,0-0.8,0.5-0.8,1C43.2,17.4,43.6,17.8,44.1,17.8
						 M44.1,15.5c0.7,0,1.4,0.5,1.4,1.4c0,0.9-0.6,1.4-1.4,1.4c-0.7,0-1.4-0.5-1.4-1.4C42.7,15.9,43.4,15.5,44.1,15.5"/>
					<path class="st9" d="M46.2,14.6c0-0.1,0-0.1,0.1-0.1h0.2c0.1,0,0.1,0,0.1,0.1v2.7c0,0.3,0.1,0.5,0.3,0.5c0.1,0,0.1,0,0.1,0
						c0.1,0,0.1,0,0.1,0.1v0.2c0,0.1,0,0.1-0.1,0.1c-0.1,0-0.2,0-0.2,0c-0.6,0-0.7-0.4-0.7-1L46.2,14.6L46.2,14.6z"/>
					<path class="st9" d="M51,16.8c0-0.6-0.3-1-0.8-1c-0.5,0-0.7,0.5-0.7,1c0,0.4,0.2,1,0.7,1C50.7,17.8,51,17.4,51,16.8 M51,15.9
						L51,15.9l0-1.3c0-0.1,0-0.1,0.1-0.1h0.2c0.1,0,0.1,0,0.1,0.1v3l0.3,0.4c0,0,0,0,0,0.1c0,0,0,0.1-0.1,0.1h-0.3
						c-0.1,0-0.1,0-0.2-0.1l-0.2-0.3h0c-0.2,0.3-0.5,0.4-0.9,0.4c-0.8,0-1.2-0.7-1.2-1.4c0-0.7,0.4-1.4,1.2-1.4
						C50.5,15.5,50.8,15.6,51,15.9"/>
					<path class="st9" d="M54.3,16.4c-0.1-0.3-0.4-0.5-0.8-0.5c-0.6,0-0.8,0.5-0.8,1c0,0.5,0.2,1,0.8,1c0.4,0,0.7-0.2,0.8-0.6
						L54.3,16.4L54.3,16.4z M54.3,15.8L54.3,15.8l0-0.1c0-0.1,0-0.1,0.1-0.1h0.2c0.1,0,0.1,0,0.1,0.1V18c0,0.1,0,0.1-0.1,0.1h-0.2
						c-0.1,0-0.1,0-0.1-0.1v-0.2h0c-0.2,0.3-0.5,0.4-0.9,0.4c-0.8,0-1.2-0.7-1.2-1.4c0-0.7,0.4-1.4,1.2-1.4
						C53.8,15.5,54.1,15.6,54.3,15.8"/>
					<path class="st9" d="M56.7,17.7L56.7,17.7l0.7-2c0-0.1,0.1-0.1,0.2-0.1h0.3c0.1,0,0.1,0,0.1,0.1c0,0,0,0.1,0,0.1l-1.4,3.7
						c0,0.1-0.1,0.1-0.2,0.1h-0.3c-0.1,0-0.1,0-0.1-0.1c0,0,0-0.1,0-0.1l0.4-1.1l-1-2.6c0,0,0-0.1,0-0.1c0-0.1,0-0.1,0.1-0.1h0.3
						c0.1,0,0.1,0,0.2,0.1C56,15.6,56.7,17.7,56.7,17.7z"/>
					<path class="st9" d="M47.9,16c0-0.1,0-0.1,0.1-0.1h0.2c0.1,0,0.1,0,0.1,0.1v2c0,0.1,0,0.1-0.1,0.1H48c-0.1,0-0.1,0-0.1-0.1V16z
						"/>
					<path class="st9" d="M48.1,15c0.1,0,0.3,0.1,0.3,0.3s-0.1,0.3-0.3,0.3c-0.1,0-0.3-0.1-0.3-0.3S48,15,48.1,15"/>
				</g>
			</g>
		</g>
	</g>
</g>
</svg>
