<?xml version="1.0" encoding="utf-8"?>
<!-- Generator: Adobe Illustrator 22.1.0, SVG Export Plug-In . SVG Version: 6.00 Build 0)  -->
<svg version="1.1" id="Layer_1" xmlns="http://www.w3.org/2000/svg" xmlns:xlink="http://www.w3.org/1999/xlink" x="0px" y="0px"
	 viewBox="0 0 70 20" style="enable-background:new 0 0 70 20;" xml:space="preserve">
<style type="text/css">
	.st0{fill-rule:evenodd;clip-rule:evenodd;fill:#FFFFFF;}
	.st1{fill:#6F767B;}
	.st2{fill:url(#SVGID_1_);}
	.st3{fill:url(#SVGID_2_);}
	.st4{fill:url(#SVGID_3_);}
	.st5{fill:url(#SVGID_4_);}
	.st6{fill:url(#SVGID_5_);}
	.st7{fill:url(#SVGID_6_);}
	.st8{fill:#FFFBC8;}
	.st9{fill:url(#SVGID_7_);}
	.st10{opacity:0.8;}
	.st11{fill:url(#SVGID_8_);}
	.st12{fill:url(#SVGID_9_);}
	.st13{opacity:0.9;}
	.st14{fill:url(#SVGID_10_);}
	.st15{fill:url(#SVGID_11_);}
	.st16{fill:url(#SVGID_12_);}
	.st17{fill:url(#SVGID_13_);}
	.st18{fill:none;}
	.st19{clip-path:url(#SVGID_15_);}
	.st20{fill:url(#SVGID_16_);}
	.st21{fill:url(#SVGID_17_);}
	.st22{filter:url(#Adobe_OpacityMaskFilter);}
	.st23{fill:url(#SVGID_19_);}
	.st24{mask:url(#SVGID_18_);fill:url(#SVGID_20_);}
	.st25{filter:url(#Adobe_OpacityMaskFilter_1_);}
	.st26{fill:url(#SVGID_22_);}
	.st27{mask:url(#SVGID_21_);fill:url(#SVGID_23_);}
	.st28{filter:url(#Adobe_OpacityMaskFilter_2_);}
	.st29{fill:url(#SVGID_25_);}
	.st30{opacity:0.62;mask:url(#SVGID_24_);}
	.st31{fill:url(#SVGID_26_);}
	.st32{filter:url(#Adobe_OpacityMaskFilter_3_);}
	.st33{fill:url(#SVGID_28_);}
	.st34{opacity:0.37;mask:url(#SVGID_27_);}
	.st35{fill:url(#SVGID_29_);}
	.st36{filter:url(#Adobe_OpacityMaskFilter_4_);}
	.st37{fill:url(#SVGID_31_);}
	.st38{opacity:0.45;mask:url(#SVGID_30_);fill:url(#SVGID_32_);}
	.st39{filter:url(#Adobe_OpacityMaskFilter_5_);}
	.st40{fill:url(#SVGID_34_);}
	.st41{opacity:0.5;mask:url(#SVGID_33_);}
	.st42{fill:url(#SVGID_35_);}
	.st43{filter:url(#Adobe_OpacityMaskFilter_6_);}
	.st44{fill:url(#SVGID_37_);}
	.st45{opacity:0.75;mask:url(#SVGID_36_);fill:url(#SVGID_38_);}
	.st46{filter:url(#Adobe_OpacityMaskFilter_7_);}
	.st47{fill:url(#SVGID_40_);}
	.st48{opacity:0.65;mask:url(#SVGID_39_);fill:url(#SVGID_41_);}
	.st49{filter:url(#Adobe_OpacityMaskFilter_8_);}
	.st50{fill:url(#SVGID_43_);}
	.st51{opacity:0.37;mask:url(#SVGID_42_);fill:url(#SVGID_44_);}
	.st52{fill:url(#SVGID_45_);}
	.st53{fill:#ED1A77;}
	.st54{fill:#00799E;}
	.st55{fill:#23BBB8;}
	.st56{fill:#0092D0;}
	.st57{fill:#F9A51A;}
	.st58{fill:#FFCB31;}
	.st59{fill-rule:evenodd;clip-rule:evenodd;fill:#0071BB;}
	.st60{fill-rule:evenodd;clip-rule:evenodd;fill:#00ADEE;}
	.st61{fill-rule:evenodd;clip-rule:evenodd;fill:#2E3191;}
	.st62{fill-rule:evenodd;clip-rule:evenodd;fill:#F6921E;}
	.st63{fill-rule:evenodd;clip-rule:evenodd;fill:#FFF100;}
	.st64{fill-rule:evenodd;clip-rule:evenodd;fill:#EC1C24;}
	.st65{fill-rule:evenodd;clip-rule:evenodd;fill:#231F20;}
	.st66{fill:#5BCBF5;}
	.st67{fill:#DA2128;}
	.st68{fill:#8D1417;}
	.st69{fill:#FAAB41;}
	.st70{fill:#231F20;}
	.st71{fill:#FFFFFF;}
	.st72{fill:none;stroke:#BE7C68;stroke-width:0.5;stroke-miterlimit:10;}
</style>
<rect x="3" y="1.5" class="st0" width="64" height="17"/>
<rect class="st66" width="70" height="20"/>
<g>
	<path class="st67" d="M51.7,15.4C51.7,15.3,51.8,15.3,51.7,15.4c0.1-0.1,0.1-0.2,0.1-0.2v-5c0-0.1,0-0.1,0-0.2c0,0,0-0.1-0.1-0.1
		c-0.1-0.1-0.3-0.1-0.5-0.1c-0.3,0-0.5,0-0.5,0.1c0,0-0.1,0.1-0.1,0.1c0,0,0,0.1,0,0.2v5c0,0.1,0,0.2,0.1,0.2
		c0.1,0.1,0.3,0.1,0.5,0.1C51.4,15.5,51.6,15.4,51.7,15.4z M48,15.4c0.3-0.1,0.5-0.2,0.7-0.4c0.2-0.2,0.3-0.4,0.4-0.6
		c0.1-0.2,0.1-0.5,0.1-0.8v-3.5c0-0.1,0-0.2-0.1-0.2c-0.1-0.1-0.3-0.1-0.5-0.1c-0.3,0-0.5,0-0.5,0.1c0,0-0.1,0.1-0.1,0.1
		c0,0,0,0.1,0,0.2v3.5c0,0.1,0,0.3-0.1,0.4c0,0.1-0.2,0.3-0.3,0.4c-0.2,0.1-0.4,0.1-0.6,0.1c-0.2,0-0.3,0-0.5-0.1
		c-0.1,0-0.2-0.1-0.3-0.2c-0.1-0.1-0.1-0.2-0.2-0.3c0-0.1-0.1-0.2-0.1-0.4v-3.5c0-0.1,0-0.2-0.1-0.2c-0.1-0.1-0.3-0.1-0.5-0.1
		c-0.3,0-0.5,0-0.5,0.1c0,0-0.1,0.1-0.1,0.1c0,0,0,0.1,0,0.2v3.5c0,0.3,0,0.5,0.1,0.8c0.1,0.2,0.2,0.4,0.4,0.6
		c0.2,0.2,0.4,0.3,0.7,0.4c0.3,0.1,0.6,0.1,1,0.1C47.3,15.5,47.7,15.5,48,15.4z M41.8,15.4C41.9,15.3,41.9,15.3,41.8,15.4
		c0.1-0.1,0.1-0.2,0.1-0.2v-4.3h1.2c0.1,0,0.2,0,0.2,0c0.1,0,0.1-0.1,0.1-0.1c0-0.1,0.1-0.2,0.1-0.3c0-0.1,0-0.2,0-0.3
		c0-0.1,0-0.1,0-0.1c0,0,0-0.1-0.1-0.1c0,0-0.1,0-0.1,0c0,0-0.1,0-0.2,0h-3.9c-0.1,0-0.2,0-0.2,0c-0.1,0-0.1,0.1-0.1,0.1
		c0,0.1-0.1,0.2-0.1,0.3c0,0.1,0,0.2,0,0.3c0,0.1,0,0.1,0,0.2c0,0,0,0.1,0.1,0.1c0,0,0.1,0,0.2,0h1.4v4.3c0,0.1,0,0.2,0.1,0.2
		c0.1,0.1,0.3,0.1,0.5,0.1C41.6,15.5,41.8,15.4,41.8,15.4z"/>
	<path class="st67" d="M19.1,6.7h4.4c0.4,0,0.8,0.1,0.9,0.7c0.1,0.7,0.1,1.1-0.7,1.2l-1.4,0.1c1,6.4,6.9,8.5,10.1,1.6
		c0.5-1.1,0.7-1.3,1.3-1.2c0.8,0.2,0.9,0.6,0.5,1.7c-2.8,8.5-12.1,9.3-14-2L19.1,9c-0.9,0.1-0.9-0.7-0.9-1.1
		C18.2,7,18.5,6.7,19.1,6.7z"/>
	<path class="st67" d="M35,2.6c0.9,0,1.6,0.7,1.6,1.6c0,0.9-0.7,1.6-1.6,1.6c-0.9,0-1.6-0.7-1.6-1.6C33.3,3.4,34.1,2.6,35,2.6z"/>
</g>
</svg>
